<?xml version="1.0" encoding="UTF-8" standalone="no"?>
<svg
   xmlns:dc="http://purl.org/dc/elements/1.1/"
   xmlns:cc="http://creativecommons.org/ns#"
   xmlns:rdf="http://www.w3.org/1999/02/22-rdf-syntax-ns#"
   xmlns:svg="http://www.w3.org/2000/svg"
   xmlns="http://www.w3.org/2000/svg"
   viewBox="0 0 666.66669 496.81332"
   height="496.81332"
   width="666.66669"
   xml:space="preserve"
   id="svg2"
   version="1.1"><metadata
     id="metadata8"><rdf:RDF><cc:Work
         rdf:about=""><dc:format>image/svg+xml</dc:format><dc:type
           rdf:resource="http://purl.org/dc/dcmitype/StillImage" /></cc:Work></rdf:RDF></metadata><defs
     id="defs6" /><g
     transform="matrix(1.3333333,0,0,-1.3333333,0,496.81333)"
     id="g10"><g
       transform="scale(0.1)"
       id="g12"><path
         id="path14"
         style="fill:#eeeeee;fill-opacity:1;fill-rule:nonzero;stroke:none"
         d="m 0,449.129 h 5000 v 2.5 H 0 Z" /><path
         id="path16"
         style="fill:#eeeeee;fill-opacity:1;fill-rule:nonzero;stroke:none"
         d="m 4167.79,290.672 h 331.22 v -2.5 h -331.22 v 2.5" /><path
         id="path18"
         style="fill:#eeeeee;fill-opacity:1;fill-rule:nonzero;stroke:none"
         d="m 3225.27,263.539 h 86.93 v -2.5 h -86.93 v 2.5" /><path
         id="path20"
         style="fill:#eeeeee;fill-opacity:1;fill-rule:nonzero;stroke:none"
         d="m 3965.86,383.539 h 191.92 v -2.5 h -191.92 v 2.5" /><path
         id="path22"
         style="fill:#eeeeee;fill-opacity:1;fill-rule:nonzero;stroke:none"
         d="m 524.59,366.73 h 431.933 v -2.5 H 524.59 v 2.5" /><path
         id="path24"
         style="fill:#eeeeee;fill-opacity:1;fill-rule:nonzero;stroke:none"
         d="m 1045.56,366.73 h 63.33 v -2.5 h -63.33 v 2.5" /><path
         id="path26"
         style="fill:#eeeeee;fill-opacity:1;fill-rule:nonzero;stroke:none"
         d="m 1314.71,322.012 h 936.758 v 2.5 H 1314.71 Z" /><path
         id="path28"
         style="fill:#eeeeee;fill-opacity:1;fill-rule:nonzero;stroke:none"
         d="m 439.152,3723.59 c -30.101,0 -54.582,-24.48 -54.582,-54.57 V 954.699 c 0,-30.097 24.481,-54.578 54.582,-54.578 H 2370.14 c 30.08,0 54.57,24.481 54.57,54.578 V 3669.02 c 0,30.09 -24.49,54.57 -54.57,54.57 H 439.152 M 2370.14,897.621 H 439.152 c -31.476,0 -57.082,25.598 -57.082,57.078 V 3669.02 c 0,31.46 25.606,57.07 57.082,57.07 H 2370.14 c 31.46,0 57.07,-25.61 57.07,-57.07 V 954.699 c 0,-31.48 -25.61,-57.078 -57.07,-57.078" /><path
         id="path30"
         style="fill:#eeeeee;fill-opacity:1;fill-rule:nonzero;stroke:none"
         d="m 2602.12,3723.59 c -30.09,0 -54.57,-24.48 -54.57,-54.57 V 954.699 c 0,-30.097 24.48,-54.578 54.57,-54.578 h 1930.99 c 30.09,0 54.58,24.481 54.58,54.578 V 3669.02 c 0,30.09 -24.49,54.57 -54.58,54.57 H 2602.12 M 4533.11,897.621 H 2602.12 c -31.47,0 -57.07,25.598 -57.07,57.078 V 3669.02 c 0,31.46 25.6,57.07 57.07,57.07 h 1930.99 c 31.47,0 57.08,-25.61 57.08,-57.07 V 954.699 c 0,-31.48 -25.61,-57.078 -57.08,-57.078" /><path
         id="path32"
         style="fill:#f8f8f9;fill-opacity:1;fill-rule:nonzero;stroke:none"
         d="m 3165.44,1451.08 h 1201.42 c 0,-44.12 -34.72,-80.33 -78.78,-82.31 -129.12,-5.82 -327.74,-26.25 -390.72,-97.69 -117.41,-133.17 -106.04,-600.951 34.59,-709.299 44.1,-33.972 172.65,-101.422 172.65,-101.422 h -676.9 c 0,0 120.12,68.821 161.86,101.422 139.83,109.239 143.91,576.739 25.95,709.299 -60.52,68 -246.69,89.98 -371.6,96.9 -44.07,2.45 -78.47,38.96 -78.47,83.1" /><path
         id="path34"
         style="fill:#e9e9e8;fill-opacity:1;fill-rule:nonzero;stroke:none"
         d="m 4218.03,1364.41 c -122.03,-9.79 -268.27,-33.9 -320.67,-93.33 -15.51,-17.59 -28.71,-41.15 -39.72,-68.8 h -201.79 c -11.3,27.68 -24.72,51.24 -40.34,68.8 -52.6,59.1 -200.06,83.42 -319.77,93.33 h 922.29" /><path
         id="path36"
         style="fill:#eeeeee;fill-opacity:1;fill-rule:nonzero;stroke:none"
         d="m 3677.21,1450.49 16.33,186.74 h -236.81 l -16.34,-186.74 h 236.82" /><path
         id="path38"
         style="fill:#e3e3e2;fill-opacity:1;fill-rule:nonzero;stroke:none"
         d="m 3677.21,1450.49 16.33,186.74 h 12.76 l -16.34,-186.74 h -12.75" /><path
         id="path40"
         style="fill:#f4f4f4;fill-opacity:1;fill-rule:nonzero;stroke:none"
         d="m 3654.73,1469.53 13,148.66 H 3479.2 l -13,-148.66 h 188.53" /><path
         id="path42"
         style="fill:#fcfdfd;fill-opacity:1;fill-rule:nonzero;stroke:none"
         d="m 3640.28,1481.77 10.86,124.18 h -157.48 l -10.87,-124.18 h 157.49" /><path
         id="path44"
         style="fill:#e9e9e8;fill-opacity:1;fill-rule:nonzero;stroke:none"
         d="m 3754.03,1451.08 h 237.89 l -26.39,301.69 h -237.9 l 26.4,-301.69" /><path
         id="path46"
         style="fill:#e3e3e2;fill-opacity:1;fill-rule:nonzero;stroke:none"
         d="m 3754.03,1451.08 h -11.36 l -26.4,301.69 h 11.36 l 26.4,-301.69" /><path
         id="path48"
         style="fill:#f4f4f4;fill-opacity:1;fill-rule:nonzero;stroke:none"
         d="m 3775.59,1481.84 h 189.39 l -21.02,240.17 h -189.38 l 21.01,-240.17" /><path
         id="path50"
         style="fill:#fcfdfd;fill-opacity:1;fill-rule:nonzero;stroke:none"
         d="m 3789.45,1501.6 h 158.21 l -17.55,200.64 H 3771.9 l 17.55,-200.64" /><path
         id="path52"
         style="fill:#eeeeee;fill-opacity:1;fill-rule:nonzero;stroke:none"
         d="m 3869.36,1611.97 c -10.75,-10.75 -28.17,-10.75 -38.92,0 -10.75,10.75 -10.75,28.18 0,38.92 10.75,10.75 28.17,10.75 38.92,0 10.75,-10.74 10.75,-28.17 0,-38.92" /><path
         id="path54"
         style="fill:#f4f4f4;fill-opacity:1;fill-rule:nonzero;stroke:none"
         d="m 3857.71,1578.26 c 7.88,7.87 20.64,7.87 28.51,0 12.69,-12.69 3.7,-34.4 -14.26,-34.4 -17.95,0 -26.94,21.71 -14.25,34.4" /><path
         id="path56"
         style="fill:#e3e3e2;fill-opacity:1;fill-rule:nonzero;stroke:none"
         d="m 817.281,1795.05 h 1121.88 V 3035.83 H 817.281 Z" /><path
         id="path58"
         style="fill:#f4f4f4;fill-opacity:1;fill-rule:nonzero;stroke:none"
         d="m 781.453,1795.05 h 1163.6 v 1240.78 h -1163.6 z" /><path
         id="path60"
         style="fill:#ffffff;fill-opacity:1;fill-rule:nonzero;stroke:none"
         d="M 830.68,1852.06 H 1897.69 V 2996.25 H 830.68 Z" /><path
         id="path62"
         style="fill:#e3e3e2;fill-opacity:1;fill-rule:nonzero;stroke:none"
         d="m 830.68,1852.06 h 30.8555 V 2996.25 H 830.68 Z" /><path
         id="path64"
         style="fill:#e3e3e2;fill-opacity:1;fill-rule:nonzero;stroke:none"
         d="M 858.238,2173.46 V 2142.6 H 1900.42 v 30.86 H 858.238" /><path
         id="path66"
         style="fill:#f4f4f4;fill-opacity:1;fill-rule:nonzero;stroke:none"
         d="m 830.68,2173.46 h 1083.55 v 51.79 H 830.68 v -51.79" /><path
         id="path68"
         style="fill:#e9e9e8;fill-opacity:1;fill-rule:nonzero;stroke:none"
         d="m 3783.87,2823.41 c 0,0 10.01,65.99 -38.12,108.3 -48.13,42.31 -43.89,67.48 -30.14,70.76 13.75,3.28 26.44,-39.03 47.59,-50.66 0,0 0.67,60.29 -20.82,82.5 -21.49,22.21 -32.76,79.44 -12.32,80.44 20.45,1.01 22.57,-33.98 26.8,-58.8 4.23,-24.81 27.01,-59.72 27.01,-59.72 0,0 4.45,53.95 18.34,76.16 13.88,22.22 -23.14,72.99 -8.86,95.2 14.28,22.21 39.67,-20.1 37.55,-67.7 -2.12,-47.59 -33.85,-98.37 -26.44,-148.08 0,0 14,34.9 26.56,38.08 12.57,3.17 25.27,26.26 33.73,34.81 8.46,8.55 19.04,-21.06 0,-48.57 -19.04,-27.5 -67.7,-101.07 -60.29,-160.54 l -20.59,7.82" /><path
         id="path70"
         style="fill:#f8f8f9;fill-opacity:1;fill-rule:nonzero;stroke:none"
         d="m 3755.1,2853.44 -15.76,-98.9 c -4.87,-30.55 18.73,-58.21 49.66,-58.21 h 16.82 c 30.92,0 54.52,27.66 49.65,58.21 l -15.76,98.9 h -84.61" /><path
         id="path72"
         style="fill:#e9e9e8;fill-opacity:1;fill-rule:nonzero;stroke:none"
         d="m 2879.44,2675.59 h 1114.03 v 57.2422 H 2879.44 Z" /><path
         id="path74"
         style="fill:#f4f4f4;fill-opacity:1;fill-rule:nonzero;stroke:none"
         d="m 2930.72,2732.83 h 49.082 v 210.988 h -49.082 z" /><path
         id="path76"
         style="fill:#f4f4f4;fill-opacity:1;fill-rule:nonzero;stroke:none"
         d="m 3168.03,2732.83 h 49.0781 v 210.988 H 3168.03 Z" /><path
         id="path78"
         style="fill:#f4f4f4;fill-opacity:1;fill-rule:nonzero;stroke:none"
         d="m 3522.36,2741.17 -48.37,-8.34 -35.83,207.92 48.37,8.34 35.83,-207.92" /><path
         id="path80"
         style="fill:#f4f4f4;fill-opacity:1;fill-rule:nonzero;stroke:none"
         d="m 2991.53,2732.83 h 49.0781 v 183.184 H 2991.53 Z" /><path
         id="path82"
         style="fill:#f4f4f4;fill-opacity:1;fill-rule:nonzero;stroke:none"
         d="m 3104.34,2732.83 h 49.082 v 183.184 h -49.082 z" /><path
         id="path84"
         style="fill:#f4f4f4;fill-opacity:1;fill-rule:nonzero;stroke:none"
         d="m 3389.08,2732.83 h 49.082 v 183.184 h -49.082 z" /><path
         id="path86"
         style="fill:#f4f4f4;fill-opacity:1;fill-rule:nonzero;stroke:none"
         d="m 3321.31,2743.48 -47.91,-10.65 -39.73,178.83 47.91,10.64 39.73,-178.82" /><path
         id="path88"
         style="fill:#f4f4f4;fill-opacity:1;fill-rule:nonzero;stroke:none"
         d="m 3058.51,2732.83 h 24.5391 v 221.461 H 3058.51 Z" /><path
         id="path90"
         style="fill:#f4f4f4;fill-opacity:1;fill-rule:nonzero;stroke:none"
         d="m 3350.43,2732.83 h 24.5391 v 221.461 H 3350.43 Z" /><path
         id="path92"
         style="fill:#e9e9e8;fill-opacity:1;fill-rule:nonzero;stroke:none"
         d="m 2879.44,2248.29 h 1114.03 v 57.2422 H 2879.44 Z" /><path
         id="path94"
         style="fill:#f4f4f4;fill-opacity:1;fill-rule:nonzero;stroke:none"
         d="m 3893.12,2305.53 h 49.0781 v 210.98 H 3893.12 Z" /><path
         id="path96"
         style="fill:#f4f4f4;fill-opacity:1;fill-rule:nonzero;stroke:none"
         d="m 3655.8,2305.53 h 49.0781 v 210.98 H 3655.8 Z" /><path
         id="path98"
         style="fill:#f4f4f4;fill-opacity:1;fill-rule:nonzero;stroke:none"
         d="m 3350.55,2313.86 48.37,-8.33 35.83,207.92 -48.36,8.34 -35.84,-207.93" /><path
         id="path100"
         style="fill:#f4f4f4;fill-opacity:1;fill-rule:nonzero;stroke:none"
         d="m 3832.3,2305.53 h 49.0781 v 183.18 H 3832.3 Z" /><path
         id="path102"
         style="fill:#f4f4f4;fill-opacity:1;fill-rule:nonzero;stroke:none"
         d="m 3719.5,2305.53 h 49.0703 v 183.18 H 3719.5 Z" /><path
         id="path104"
         style="fill:#f4f4f4;fill-opacity:1;fill-rule:nonzero;stroke:none"
         d="m 3434.75,2305.53 h 49.082 v 183.18 h -49.082 z" /><path
         id="path106"
         style="fill:#f4f4f4;fill-opacity:1;fill-rule:nonzero;stroke:none"
         d="m 3551.6,2316.17 47.91,-10.64 39.74,178.82 -47.92,10.65 -39.73,-178.83" /><path
         id="path108"
         style="fill:#f4f4f4;fill-opacity:1;fill-rule:nonzero;stroke:none"
         d="m 3789.86,2305.53 h 24.5391 v 221.457 H 3789.86 Z" /><path
         id="path110"
         style="fill:#f4f4f4;fill-opacity:1;fill-rule:nonzero;stroke:none"
         d="m 3497.94,2305.53 h 24.5391 v 221.457 H 3497.94 Z" /><path
         id="path112"
         style="fill:#f8f8f9;fill-opacity:1;fill-rule:nonzero;stroke:none"
         d="m 2986.34,2307.42 h 239.129 v 165.098 H 2986.34 Z" /><path
         id="path114"
         style="fill:#f8f8f9;fill-opacity:1;fill-rule:nonzero;stroke:none"
         d="M 4438.89,113.23 C 4438.89,50.6914 3570.83,0 2500,0 1429.18,0 561.113,50.6914 561.113,113.23 c 0,62.54 868.067,113.239 1938.887,113.239 1070.83,0 1938.89,-50.699 1938.89,-113.239" /><path
         id="path116"
         style="fill:#4870c0;fill-opacity:1;fill-rule:nonzero;stroke:none"
         d="m 3324.68,363.301 c 0,0 -49.52,108.058 7.06,214.59 56.59,106.519 73,131.621 36.92,153.437 -36.07,21.832 -52.62,-85.219 -52.62,-85.219 0,0 -30.41,73.653 -5.3,150.723 25.11,77.066 40.85,202.578 6.56,216.048 -34.29,13.47 -6.54,-156.591 -36.29,-214.56 0,0 -24.99,64.532 -29.11,126.442 -4.11,61.898 2.31,160.738 -24.76,186.098 -27.08,25.35 -44.43,7.81 -17.81,-128.801 26.61,-136.598 26.41,-247.649 26.41,-247.649 0,0 -58.77,179.192 -98.22,184.43 -39.44,5.219 -39.39,-52.809 -5.63,-103.149 33.77,-50.332 98.88,-140.5 109.56,-186.902 0,0 -64.51,134.852 -122.54,93.52 -58.03,-41.321 50.51,-122.789 98.88,-152.207 48.38,-29.442 81.98,-213.942 81.98,-213.942 l 24.91,7.141" /><path
         id="path118"
         style="fill:#395eb4;fill-opacity:1;fill-rule:nonzero;stroke:none"
         d="m 3299.77,356.16 c 0,0 -33.6,184.5 -81.98,213.942 -38.59,23.468 -115.49,80.078 -115.53,122.988 -0.01,10.879 4.92,20.871 16.65,29.219 7.71,5.5 15.53,7.882 23.31,7.882 50.72,0 99.23,-101.402 99.23,-101.402 v 0 0 c -10.68,46.402 -75.79,136.57 -109.56,186.902 -16.23,24.2 -24.67,50.18 -24.68,70.047 0,19.723 8.29,33.434 25.52,33.434 1.53,0 3.13,-0.113 4.79,-0.332 39.45,-5.238 98.22,-184.43 98.22,-184.43 0,0 0,0.031 0,0.09 0,0 0,0 0,0.012 0,0 0,0 0,0.008 v 0.011 0.008 c -0.01,4.223 -0.32,113.59 -26.41,247.52 -9.33,47.871 -13.26,81.121 -13.26,103.021 0,25.42 5.28,35.57 13.54,35.57 4.94,0 10.95,-3.63 17.53,-9.79 27.07,-25.36 20.65,-124.2 24.76,-186.098 4.12,-61.91 29.11,-126.442 29.11,-126.442 28.62,55.782 4.02,215.32 32.66,215.32 1.13,0 2.34,-0.25 3.63,-0.76 14.1,-5.54 19.74,-30.009 19.75,-62.271 0.01,-15.461 -1.28,-32.687 -3.55,-50.488 -0.11,-0.832 -0.21,-1.672 -0.32,-2.5 -4.59,-34.699 -12.83,-71.293 -22.44,-100.789 -7.33,-22.512 -9.93,-44.723 -9.93,-64.891 -0.01,-48.91 15.23,-85.832 15.23,-85.832 0,0 13.62,88.153 43.11,88.153 3,0 6.18,-0.91 9.51,-2.934 12.93,-7.816 19.12,-16.058 19.13,-28.316 0.03,-21.953 -19.74,-56.77 -56.05,-125.121 -20.55,-38.7 -27.11,-77.602 -27.12,-111.45 -0.02,-59.332 20.06,-103.14 20.06,-103.14 l -24.91,-7.141" /><path
         id="path120"
         style="fill:#4870c0;fill-opacity:1;fill-rule:nonzero;stroke:none"
         d="m 3285.59,318.98 c 0,0 48.22,108.79 -9.64,214.469 -57.86,105.672 -74.56,130.52 -38.75,152.879 35.81,22.363 53.63,-84.43 53.63,-84.43 0,0 29.53,74.09 3.5,150.782 -26.03,76.691 -43.28,201.961 -9.15,215.941 34.12,13.981 8.42,-156.48 38.86,-214 0,0 24.22,64.891 27.59,126.859 3.37,61.95 -4.24,160.69 22.53,186.45 26.76,25.75 44.32,8.47 19.35,-128.52 -24.97,-136.988 -23.44,-248.019 -23.44,-248.019 0,0 56.62,180.058 96,185.871 39.37,5.808 40.02,-52.211 6.86,-103.051 -33.15,-50.832 -97.18,-141.961 -107.3,-188.52 0,0 62.89,135.801 121.41,95.348 58.52,-40.469 -49.03,-123.539 -97.05,-153.687 -48.02,-30.141 -79.4,-215.133 -79.4,-215.133 l -25,6.761" /><path
         id="path122"
         style="fill:#1d2a30;fill-opacity:1;fill-rule:nonzero;stroke:none"
         d="m 3508.02,396.531 h -398.4 l 32.24,-285.101 h 333.92 l 32.24,285.101" /><path
         id="path124"
         style="fill:#cecdcc;fill-opacity:1;fill-rule:nonzero;stroke:none"
         d="m 4290.5,1311.79 h -332.76 c 34.93,15.52 78.37,26.99 124.32,35.45 h 131.15 c 9.5,0 17.49,7.77 19.85,18.33 19.25,1.38 37.76,2.42 55.02,3.2 9.6,0.43 18.75,2.49 27.2,5.9 v -38.11 c 0,-13.68 -11.09,-24.77 -24.78,-24.77 m -736.03,0 H 2731 l -1.12,17.77 h 29.03 c 10.6,0 19.41,7.62 21.26,17.68 h 649.47 c 32.59,-6.02 64.04,-13.54 92.15,-22.94 0.02,-0.01 0.06,-0.02 0.08,-0.03 0.07,-0.02 0.15,-0.05 0.22,-0.07 0.03,-0.01 0.08,-0.03 0.12,-0.04 0.06,-0.02 0.13,-0.04 0.19,-0.07 0.06,-0.01 0.11,-0.03 0.17,-0.05 0.05,-0.02 0.11,-0.04 0.16,-0.06 0.05,-0.01 0.12,-0.04 0.17,-0.06 0.06,-0.01 0.11,-0.03 0.17,-0.05 0.22,-0.07 0.45,-0.15 0.67,-0.23 0.01,0 0.01,0 0.02,0 0.12,-0.04 0.22,-0.08 0.34,-0.12 0,0 0.01,0 0.02,-0.01 10.65,-3.62 20.81,-7.52 30.35,-11.72 m -889.26,0 h -117.66 v 17.77 h 116.35 l 1.31,-17.77 m -120.16,0 h -117.84 v 17.77 h 117.84 v -17.77 m -120.34,0 h -108.34 l 1.3,17.77 h 107.04 v -17.77 m -174.13,0 h -65.69 c -11.25,0 -20.75,7.5 -23.77,17.77 h 90.57 l -1.11,-17.77 m 2064.7,139.29 h -81.52 v 1645.08 135.46 h 56.74 c 13.69,0 24.78,-11.1 24.78,-24.78 V 1451.08" /><path
         id="path126"
         style="fill:#bdbcba;fill-opacity:1;fill-rule:nonzero;stroke:none"
         d="m 2424.71,1311.79 h 2.5 v 17.7695 h -2.5 z" /><path
         id="path128"
         style="fill:#bdbcba;fill-opacity:1;fill-rule:nonzero;stroke:none"
         d="m 2545.05,1311.79 h 2.5 v 17.7695 h -2.5 z" /><path
         id="path130"
         style="fill:#c5c4c2;fill-opacity:1;fill-rule:nonzero;stroke:none"
         d="m 3554.47,1311.79 v 0 c -9.54,4.2 -19.7,8.1 -30.35,11.72 10.65,-3.62 20.82,-7.53 30.35,-11.72 m -30.37,11.73 c -0.12,0.04 -0.22,0.08 -0.34,0.12 0.11,-0.04 0.22,-0.08 0.34,-0.12 m -0.36,0.12 c -0.22,0.08 -0.45,0.16 -0.67,0.23 0.22,-0.07 0.45,-0.15 0.67,-0.23 m -0.84,0.28 c -0.05,0.02 -0.12,0.05 -0.17,0.06 0.06,-0.02 0.12,-0.04 0.17,-0.06 m -0.33,0.12 c -0.06,0.02 -0.11,0.04 -0.17,0.05 0.06,-0.01 0.12,-0.03 0.17,-0.05 m -0.36,0.12 c -0.04,0.01 -0.09,0.03 -0.12,0.04 0.04,-0.02 0.07,-0.02 0.12,-0.04 m -0.34,0.11 c -0.02,0.01 -0.06,0.02 -0.08,0.03 0.02,-0.01 0.05,-0.02 0.08,-0.03 m 711.19,41.3 c 0.45,2.05 0.7,4.22 0.7,6.45 v 79.06 h 81.52 v -76.41 c -8.45,-3.41 -17.6,-5.47 -27.2,-5.9 -17.26,-0.78 -35.77,-1.82 -55.02,-3.2" /><path
         id="path132"
         style="fill:#b8b8b6;fill-opacity:1;fill-rule:nonzero;stroke:none"
         d="m 3957.74,1311.79 h -403.27 c -9.53,4.19 -19.7,8.1 -30.35,11.72 -0.01,0.01 -0.02,0.01 -0.02,0.01 -0.12,0.04 -0.23,0.08 -0.34,0.12 -0.01,0 -0.01,0 -0.02,0 -0.22,0.08 -0.45,0.16 -0.67,0.23 -0.06,0.02 -0.11,0.04 -0.17,0.05 -0.05,0.02 -0.11,0.04 -0.17,0.06 -0.05,0.02 -0.11,0.04 -0.16,0.06 -0.05,0.02 -0.11,0.04 -0.17,0.05 -0.06,0.03 -0.13,0.05 -0.19,0.07 -0.05,0.02 -0.08,0.02 -0.12,0.04 -0.07,0.02 -0.15,0.05 -0.22,0.07 -0.03,0.01 -0.06,0.02 -0.08,0.03 -28.11,9.4 -59.56,16.92 -92.15,22.94 h 652.42 c -45.95,-8.46 -89.39,-19.93 -124.32,-35.45" /><path
         id="path134"
         style="fill:#4870c0;fill-opacity:1;fill-rule:nonzero;stroke:none"
         d="M 4208.98,1347.24 H 2103.37 c -13.69,0 -24.78,11.09 -24.78,24.78 v 1870.27 c 0,13.69 11.09,24.78 24.78,24.78 h 2105.61 c 13.69,0 24.78,-11.09 24.78,-24.78 V 1372.02 c 0,-13.69 -11.09,-24.78 -24.78,-24.78" /><path
         id="path136"
         style="fill:#efefee;fill-opacity:1;fill-rule:nonzero;stroke:none"
         d="m 4213.21,1347.24 h -131.15 v 0 h 126.92 c 11.45,0 21.08,7.76 23.93,18.32 0.05,0 0.09,0 0.15,0.01 -2.36,-10.56 -10.35,-18.33 -19.85,-18.33" /><path
         id="path138"
         style="fill:#ebeae9;fill-opacity:1;fill-rule:nonzero;stroke:none"
         d="m 4232.91,1365.56 c 0.55,2.06 0.85,4.22 0.85,6.46 v 79.06 -79.06 c 0,-2.23 -0.25,-4.4 -0.7,-6.45 -0.06,-0.01 -0.1,-0.01 -0.15,-0.01" /><path
         id="path140"
         style="fill:#b4caec;fill-opacity:1;fill-rule:nonzero;stroke:none"
         d="M 4208.98,1347.24 H 2780.17 c 0.24,1.28 0.36,2.6 0.36,3.94 v 9.67 23.13 h 30.96 c 9.73,0 17.63,7.9 17.63,17.63 v 0 0 c 0,9.73 -7.9,17.63 -17.63,17.63 h -732.9 v 0.08 h 85.98 c 8.92,0 15.54,7.33 15.54,15.54 0,1.99 -0.39,4.04 -1.23,6.04 l -13.11,30.95 H 4208.21 V 2994.52 H 2104.14 V 1944.29 h -25.55 v 1151.87 h 2155.17 v -1645.08 -79.06 c 0,-2.24 -0.3,-4.4 -0.85,-6.46 -2.85,-10.56 -12.48,-18.32 -23.93,-18.32" /><path
         id="path142"
         style="fill:#ffffff;fill-opacity:1;fill-rule:nonzero;stroke:none"
         d="M 2104.14,1471.85 H 4208.21 V 2994.52 H 2104.14 Z" /><path
         id="path144"
         style="fill:#b4caec;fill-opacity:1;fill-rule:nonzero;stroke:none"
         d="m 4163.38,3148.59 c -17.44,0 -31.58,17.04 -31.58,38.07 0,21.03 14.14,38.08 31.58,38.08 17.44,0 31.58,-17.05 31.58,-38.08 0,-21.03 -14.14,-38.07 -31.58,-38.07" /><path
         id="path146"
         style="fill:#b4caec;fill-opacity:1;fill-rule:nonzero;stroke:none"
         d="m 4059.86,3148.59 c -17.44,0 -31.58,17.04 -31.58,38.07 0,21.03 14.14,38.08 31.58,38.08 17.44,0 31.58,-17.05 31.58,-38.08 0,-21.03 -14.14,-38.07 -31.58,-38.07" /><path
         id="path148"
         style="fill:#b4caec;fill-opacity:1;fill-rule:nonzero;stroke:none"
         d="m 3956.34,3148.59 c -17.44,0 -31.58,17.04 -31.58,38.07 0,21.03 14.14,38.08 31.58,38.08 17.44,0 31.58,-17.05 31.58,-38.08 0,-21.03 -14.14,-38.07 -31.58,-38.07" /><path
         id="path150"
         style="fill:#4870c0;fill-opacity:1;fill-rule:nonzero;stroke:none"
         d="M 2552.42,2816.76 V 2423.99 L 2451.4,2302.17 h -223.66 v 514.59 h 324.68" /><path
         id="path152"
         style="fill:#c7d9f2;fill-opacity:1;fill-rule:nonzero;stroke:none"
         d="m 2451.4,2302.17 h -223.66 v 514.59 h 324.68 V 2482.1 h -21.1 c -24.03,0 -43.52,-19.48 -43.52,-43.51 v -14.6 h -36.4 v -121.82 m -173.33,216.82 v -14.75 h 166.09 v 14.75 h -166.09 m 0,55.89 v -14.75 h 224.03 v 14.75 h -224.03 m 0,55.9 v -14.75 h 224.03 v 14.75 h -224.03 m 0,55.89 v -14.75 h 224.03 v 14.75 h -224.03 m 0,55.89 v -14.75 h 224.03 v 14.75 h -224.03" /><path
         id="path154"
         style="fill:#9ebae5;fill-opacity:1;fill-rule:nonzero;stroke:none"
         d="m 2451.4,2302.17 v 121.82 h 36.4 v -77.92 l -36.4,-43.9" /><path
         id="path156"
         style="fill:#9ebae5;fill-opacity:1;fill-rule:nonzero;stroke:none"
         d="m 2278.07,2727.81 h 224.031 v 14.7461 H 2278.07 Z" /><path
         id="path158"
         style="fill:#9ebae5;fill-opacity:1;fill-rule:nonzero;stroke:none"
         d="m 2278.07,2671.92 h 224.031 v 14.75 H 2278.07 Z" /><path
         id="path160"
         style="fill:#9ebae5;fill-opacity:1;fill-rule:nonzero;stroke:none"
         d="m 2278.07,2616.03 h 224.031 v 14.75 H 2278.07 Z" /><path
         id="path162"
         style="fill:#9ebae5;fill-opacity:1;fill-rule:nonzero;stroke:none"
         d="m 2278.07,2560.13 h 224.031 v 14.75 H 2278.07 Z" /><path
         id="path164"
         style="fill:#9ebae5;fill-opacity:1;fill-rule:nonzero;stroke:none"
         d="m 2278.07,2504.24 h 166.09 v 14.75 h -166.09 z" /><path
         id="path166"
         style="fill:#4870c0;fill-opacity:1;fill-rule:nonzero;stroke:none"
         d="m 3067.4,2816.76 v -392.77 l -101.02,-121.82 h -223.66 v 514.59 h 324.68" /><path
         id="path168"
         style="fill:#c7d9f2;fill-opacity:1;fill-rule:nonzero;stroke:none"
         d="m 3067.4,2478.29 c -5.44,2.45 -11.48,3.81 -17.84,3.81 h -306.84 v 231.47 c 17.15,6.57 35.75,10.18 55.19,10.18 34.21,0 65.87,-11.17 91.51,-30.06 -2.1,-2.29 -4.15,-4.64 -6.14,-7.02 h -90.23 v -14.75 h 78.93 c -8.94,-12.77 -16.53,-26.56 -22.55,-41.14 h -56.38 v -14.75 h 50.92 c -4.34,-13.2 -7.44,-26.96 -9.14,-41.15 h -41.78 v -14.75 h 40.52 c -0.18,-3.64 -0.27,-7.31 -0.27,-11 v -30.14 h -40.25 v -14.75 h 40.25 v -20 h 60 v 20 h 59.23 19.27 v -0.02 h 40.7 v 0.02 h 0.03 v 55.89 h 4.55 v 14.75 h -4.63 c -0.37,14.09 -2.11,27.85 -5.08,41.15 h 9.71 v 14.75 h -13.57 c -4.33,14.4 -10.13,28.18 -17.24,41.14 h 30.81 v 14.75 h -39.67 c -0.01,0.01 -0.02,0.02 -0.03,0.03 21.16,10.89 45.14,17.05 70.53,17.05 6.6,0 13.1,-0.42 19.49,-1.23 v -224.23 m -114.87,40.7 h -59.23 v 30.14 c 0,3.7 0.13,7.37 0.38,11 h 58.85 v -41.14 m -0.11,55.89 h -56.98 c 2.44,14.49 6.9,28.31 13.09,41.15 h 36.73 c 4.16,-13.06 6.64,-26.86 7.16,-41.15 m -12.71,55.9 h -23.05 c 4.04,6.47 8.55,12.63 13.48,18.42 3.58,-5.89 6.78,-12.05 9.57,-18.42 m 15.26,111.78 h -30.77 c -35.46,25.89 -79.12,41.19 -126.29,41.19 -19.08,0 -37.57,-2.5 -55.19,-7.2 v 40.21 h 324.68 v -53.89 c -6.42,0.58 -12.92,0.88 -19.49,0.88 -33.28,0 -64.81,-7.62 -92.94,-21.19" /><path
         id="path170"
         style="fill:#9ebae5;fill-opacity:1;fill-rule:nonzero;stroke:none"
         d="m 2936.76,2732.66 c -4.06,3.45 -8.25,6.75 -12.56,9.9 h 30.77 c -6.25,-3.01 -12.32,-6.32 -18.21,-9.9" /><path
         id="path172"
         style="fill:#9ebae5;fill-opacity:1;fill-rule:nonzero;stroke:none"
         d="m 3017.08,2671.92 h -30.81 c -2.76,5.05 -5.71,9.96 -8.86,14.75 h 39.67 v -14.75 m -145.1,0 h -78.93 v 14.75 h 90.23 c -3.98,-4.75 -7.75,-9.67 -11.3,-14.75" /><path
         id="path174"
         style="fill:#9ebae5;fill-opacity:1;fill-rule:nonzero;stroke:none"
         d="m 3017.08,2616.03 h -9.71 c -1.12,4.98 -2.41,9.9 -3.86,14.75 h 13.57 v -14.75 m -71.82,0 h -36.73 c 2.45,5.07 5.16,9.99 8.13,14.75 h 23.05 c 2.09,-4.8 3.94,-9.72 5.55,-14.75 m -101.29,0 h -50.92 v 14.75 h 56.38 c -2,-4.84 -3.82,-9.75 -5.46,-14.75" /><path
         id="path176"
         style="fill:#9ebae5;fill-opacity:1;fill-rule:nonzero;stroke:none"
         d="m 3017.08,2560.13 h -4.55 v 9 c 0,1.92 -0.03,3.84 -0.08,5.75 h 4.63 v -14.75 m -64.55,0 h -58.85 c 0.35,4.99 0.94,9.91 1.76,14.75 h 56.98 c 0.07,-1.9 0.11,-3.82 0.11,-5.75 v -9 m -118.96,0 h -40.52 v 14.75 h 41.78 c -0.58,-4.86 -1,-9.79 -1.26,-14.75" /><path
         id="path178"
         style="fill:#9ebae5;fill-opacity:1;fill-rule:nonzero;stroke:none"
         d="m 2952.53,2504.24 h -59.23 v 14.75 h 59.23 v -14.75 m -119.23,0 h -40.25 v 14.75 h 40.25 v -14.75" /><path
         id="path180"
         style="fill:#4870c0;fill-opacity:1;fill-rule:nonzero;stroke:none"
         d="M 3582.38,2816.76 V 2423.99 L 3481.36,2302.17 H 3257.7 v 514.59 h 324.68" /><path
         id="path182"
         style="fill:#c7d9f2;fill-opacity:1;fill-rule:nonzero;stroke:none"
         d="m 3481.36,2302.17 h -138.28 v 116.42 c 0,24.03 -19.49,43.51 -43.52,43.51 h -41.86 v 22.14 h 4.83 v 64.89 c 0,15.57 -1.67,30.75 -4.83,45.39 v 222.24 h 324.68 v -392.77 h -101.02 v -121.82 m -173.34,216.82 v -14.75 h 166.1 v 14.75 h -166.1 m 0,55.89 v -14.75 h 224.04 v 14.75 h -224.04 m 0,55.9 v -14.75 h 224.04 v 14.75 h -224.04 m 0,55.89 v -14.75 h 224.04 v 14.75 h -224.04 m 0,55.89 v -14.75 h 224.04 v 14.75 h -224.04" /><path
         id="path184"
         style="fill:#9ebae5;fill-opacity:1;fill-rule:nonzero;stroke:none"
         d="m 3481.36,2302.17 v 121.82 h 101.02 l -101.02,-121.82" /><path
         id="path186"
         style="fill:#9ebae5;fill-opacity:1;fill-rule:nonzero;stroke:none"
         d="m 3308.02,2727.81 h 224.039 v 14.7461 H 3308.02 Z" /><path
         id="path188"
         style="fill:#9ebae5;fill-opacity:1;fill-rule:nonzero;stroke:none"
         d="m 3308.02,2671.92 h 224.039 v 14.75 H 3308.02 Z" /><path
         id="path190"
         style="fill:#9ebae5;fill-opacity:1;fill-rule:nonzero;stroke:none"
         d="m 3308.02,2616.03 h 224.039 v 14.75 H 3308.02 Z" /><path
         id="path192"
         style="fill:#9ebae5;fill-opacity:1;fill-rule:nonzero;stroke:none"
         d="m 3308.02,2560.13 h 224.039 v 14.75 H 3308.02 Z" /><path
         id="path194"
         style="fill:#9ebae5;fill-opacity:1;fill-rule:nonzero;stroke:none"
         d="m 3308.02,2504.24 h 166.102 v 14.75 H 3308.02 Z" /><path
         id="path196"
         style="fill:#4870c0;fill-opacity:1;fill-rule:nonzero;stroke:none"
         d="m 4097.36,2816.76 v -392.77 l -101.03,-121.82 h -223.65 v 514.59 h 324.68" /><path
         id="path198"
         style="fill:#c7d9f2;fill-opacity:1;fill-rule:nonzero;stroke:none"
         d="m 3996.33,2302.17 h -223.65 v 514.59 h 324.68 V 2423.99 H 3996.33 V 2302.17 M 3823,2518.99 v -14.75 h 166.1 v 14.75 H 3823 m 0,55.89 v -14.75 h 224.04 v 14.75 H 3823 m 0,55.9 v -14.75 h 224.04 v 14.75 H 3823 m 0,55.89 v -14.75 h 224.04 v 14.75 H 3823 m 0,55.89 v -14.75 h 224.04 v 14.75 H 3823" /><path
         id="path200"
         style="fill:#9ebae5;fill-opacity:1;fill-rule:nonzero;stroke:none"
         d="m 3996.33,2302.17 v 121.82 h 101.03 l -101.03,-121.82" /><path
         id="path202"
         style="fill:#9ebae5;fill-opacity:1;fill-rule:nonzero;stroke:none"
         d="m 3823,2727.81 h 224.039 v 14.7461 H 3823 Z" /><path
         id="path204"
         style="fill:#9ebae5;fill-opacity:1;fill-rule:nonzero;stroke:none"
         d="m 3823,2671.92 h 224.039 v 14.75 H 3823 Z" /><path
         id="path206"
         style="fill:#9ebae5;fill-opacity:1;fill-rule:nonzero;stroke:none"
         d="m 3823,2616.03 h 224.039 v 14.75 H 3823 Z" /><path
         id="path208"
         style="fill:#9ebae5;fill-opacity:1;fill-rule:nonzero;stroke:none"
         d="m 3823,2560.13 h 224.039 v 14.75 H 3823 Z" /><path
         id="path210"
         style="fill:#9ebae5;fill-opacity:1;fill-rule:nonzero;stroke:none"
         d="m 3823,2504.24 h 166.102 v 14.75 H 3823 Z" /><path
         id="path212"
         style="fill:#4870c0;fill-opacity:1;fill-rule:nonzero;stroke:none"
         d="M 2552.42,2136.76 V 1744 L 2451.4,1622.17 h -223.66 v 514.59 h 324.68" /><path
         id="path214"
         style="fill:#c7d9f2;fill-opacity:1;fill-rule:nonzero;stroke:none"
         d="M 2451.4,1622.17 H 2315 l 38.2,202.07 h 90.96 v 14.75 h -88.17 l 7.78,41.14 h 138.33 v 14.75 h -135.54 l 7.68,40.64 c 0.03,0.17 0.06,0.34 0.08,0.51 h 127.78 v 14.74 h -224.03 v -6.48 h -50.33 v 192.47 h 260.06 v -74.2 h -209.73 v -14.75 h 209.8 c 1.23,-22.93 20.21,-41.14 43.45,-41.14 h 21.1 V 1744 H 2451.4 v -121.83 m -173.33,384.5 v -14.75 h 224.03 v 14.75 h -224.03" /><path
         id="path216"
         style="fill:#9ebae5;fill-opacity:1;fill-rule:nonzero;stroke:none"
         d="M 2451.4,1622.17 V 1744 h 101.02 L 2451.4,1622.17" /><path
         id="path218"
         style="fill:#9ebae5;fill-opacity:1;fill-rule:nonzero;stroke:none"
         d="m 2487.87,2047.81 h -209.8 v 14.75 h 209.73 v -12.37 0 c 0,-0.8 0.02,-1.59 0.07,-2.38" /><path
         id="path220"
         style="fill:#9ebae5;fill-opacity:1;fill-rule:nonzero;stroke:none"
         d="m 2278.07,1991.92 h 224.031 v 14.75 H 2278.07 Z" /><path
         id="path222"
         style="fill:#9ebae5;fill-opacity:1;fill-rule:nonzero;stroke:none"
         d="m 2502.1,1936.03 h -127.78 c 0.05,0.39 0.08,0.77 0.08,1.15 -0.01,4.05 -3,7.11 -7.27,7.11 h -89.06 v 6.48 h 224.03 v -14.74" /><path
         id="path224"
         style="fill:#9ebae5;fill-opacity:1;fill-rule:nonzero;stroke:none"
         d="m 2502.1,1880.13 h -138.33 l 2.79,14.75 h 135.54 v -14.75" /><path
         id="path226"
         style="fill:#9ebae5;fill-opacity:1;fill-rule:nonzero;stroke:none"
         d="m 2444.16,1824.24 h -90.96 l 2.79,14.75 h 88.17 v -14.75" /><path
         id="path228"
         style="fill:#4870c0;fill-opacity:1;fill-rule:nonzero;stroke:none"
         d="M 3067.4,2136.76 V 1744 l -101.02,-121.83 h -223.66 v 514.59 h 324.68" /><path
         id="path230"
         style="fill:#c7d9f2;fill-opacity:1;fill-rule:nonzero;stroke:none"
         d="m 2966.38,1622.17 h -223.66 v 384.5 h 1.98 c 7.74,-12.04 21.25,-20 36.62,-20 H 3067.4 V 1744 h -101.02 v -121.83 m -173.33,216.82 v -14.75 h 166.09 v 14.75 h -166.09 m 0,55.89 v -14.75 h 224.03 v 14.75 h -224.03 m 0,55.89 v -14.74 h 224.03 v 14.74 h -224.03" /><path
         id="path232"
         style="fill:#9ebae5;fill-opacity:1;fill-rule:nonzero;stroke:none"
         d="M 2966.38,1622.17 V 1744 h 101.02 l -101.02,-121.83" /><path
         id="path234"
         style="fill:#9ebae5;fill-opacity:1;fill-rule:nonzero;stroke:none"
         d="m 2793.05,1936.03 h 224.031 v 14.7383 H 2793.05 Z" /><path
         id="path236"
         style="fill:#9ebae5;fill-opacity:1;fill-rule:nonzero;stroke:none"
         d="m 2793.05,1880.13 h 224.031 v 14.75 H 2793.05 Z" /><path
         id="path238"
         style="fill:#9ebae5;fill-opacity:1;fill-rule:nonzero;stroke:none"
         d="m 2793.05,1824.24 h 166.09 v 14.75 h -166.09 z" /><path
         id="path240"
         style="fill:#4870c0;fill-opacity:1;fill-rule:nonzero;stroke:none"
         d="M 3582.38,2136.76 V 1744 L 3481.36,1622.17 H 3257.7 v 514.59 h 324.68" /><path
         id="path242"
         style="fill:#c7d9f2;fill-opacity:1;fill-rule:nonzero;stroke:none"
         d="M 3481.36,1622.17 H 3257.7 v 364.5 h 41.86 c 7.51,0 14.58,1.9 20.74,5.25 h 211.76 v 14.75 h -195.88 c 4.36,6.78 6.9,14.85 6.9,23.52 v 17.62 h 188.98 v 14.75 h -188.98 v 74.2 h 239.3 V 1744 h -101.02 v -121.83 m -173.34,216.82 v -14.75 h 166.1 v 14.75 h -166.1 m 0,55.89 v -14.75 h 224.04 v 14.75 h -224.04 m 0,55.89 v -14.74 h 224.04 v 14.74 h -224.04" /><path
         id="path244"
         style="fill:#9ebae5;fill-opacity:1;fill-rule:nonzero;stroke:none"
         d="M 3481.36,1622.17 V 1744 h 101.02 l -101.02,-121.83" /><path
         id="path246"
         style="fill:#9ebae5;fill-opacity:1;fill-rule:nonzero;stroke:none"
         d="m 3343.08,2047.81 h 188.977 v 14.75 H 3343.08 Z" /><path
         id="path248"
         style="fill:#9ebae5;fill-opacity:1;fill-rule:nonzero;stroke:none"
         d="M 3532.06,1991.92 H 3320.3 c 6.46,3.5 11.92,8.59 15.88,14.75 h 195.88 v -14.75" /><path
         id="path250"
         style="fill:#9ebae5;fill-opacity:1;fill-rule:nonzero;stroke:none"
         d="m 3308.02,1936.03 h 224.039 v 14.7383 H 3308.02 Z" /><path
         id="path252"
         style="fill:#9ebae5;fill-opacity:1;fill-rule:nonzero;stroke:none"
         d="m 3308.02,1880.13 h 224.039 v 14.75 H 3308.02 Z" /><path
         id="path254"
         style="fill:#9ebae5;fill-opacity:1;fill-rule:nonzero;stroke:none"
         d="m 3308.02,1824.24 h 166.102 v 14.75 H 3308.02 Z" /><path
         id="path256"
         style="fill:#4870c0;fill-opacity:1;fill-rule:nonzero;stroke:none"
         d="M 4097.36,2136.76 V 1744 l -101.03,-121.83 h -223.65 v 514.59 h 324.68" /><path
         id="path258"
         style="fill:#c7d9f2;fill-opacity:1;fill-rule:nonzero;stroke:none"
         d="m 3996.33,1622.17 h -223.65 v 514.59 h 324.68 V 1744 H 3996.33 V 1622.17 M 3823,1838.99 v -14.75 h 166.1 v 14.75 H 3823 m 0,55.89 v -14.75 h 224.04 v 14.75 H 3823 m 0,55.89 v -14.74 h 224.04 v 14.74 H 3823 m 0,55.9 v -14.75 h 224.04 v 14.75 H 3823 m 0,55.89 v -14.75 h 224.04 v 14.75 H 3823" /><path
         id="path260"
         style="fill:#9ebae5;fill-opacity:1;fill-rule:nonzero;stroke:none"
         d="M 3996.33,1622.17 V 1744 h 101.03 l -101.03,-121.83" /><path
         id="path262"
         style="fill:#9ebae5;fill-opacity:1;fill-rule:nonzero;stroke:none"
         d="m 3823,2047.81 h 224.039 v 14.75 H 3823 Z" /><path
         id="path264"
         style="fill:#9ebae5;fill-opacity:1;fill-rule:nonzero;stroke:none"
         d="m 3823,1991.92 h 224.039 v 14.75 H 3823 Z" /><path
         id="path266"
         style="fill:#9ebae5;fill-opacity:1;fill-rule:nonzero;stroke:none"
         d="m 3823,1936.03 h 224.039 v 14.7383 H 3823 Z" /><path
         id="path268"
         style="fill:#9ebae5;fill-opacity:1;fill-rule:nonzero;stroke:none"
         d="m 3823,1880.13 h 224.039 v 14.75 H 3823 Z" /><path
         id="path270"
         style="fill:#9ebae5;fill-opacity:1;fill-rule:nonzero;stroke:none"
         d="m 3823,1824.24 h 166.102 v 14.75 H 3823 Z" /><path
         id="path272"
         style="fill:#e8e8e7;fill-opacity:1;fill-rule:nonzero;stroke:none"
         d="m 3257.7,1986.67 h -190.3 v 23.81 c 15.14,6.81 25.68,22.03 25.68,39.71 v 388.4 c 0,8.66 -2.53,16.73 -6.9,23.51 h 171.52 v -159.93 h 85.38 v -165.41 h -85.38 v -150.09" /><path
         id="path274"
         style="fill:#b1c2e8;fill-opacity:1;fill-rule:nonzero;stroke:none"
         d="m 3343.08,2302.17 h -85.38 v 159.93 h 41.86 c 24.03,0 43.52,-19.48 43.52,-43.51 v -116.42" /><path
         id="path276"
         style="fill:#b1c2e8;fill-opacity:1;fill-rule:nonzero;stroke:none"
         d="m 3067.4,1986.67 h -286.08 c -15.37,0 -28.88,7.96 -36.62,20 h 48.35 v -14.75 h 224.03 v 14.75 h 32.48 c 6.36,0 12.4,1.36 17.84,3.81 v -23.81" /><path
         id="path278"
         style="fill:#89a7dd;fill-opacity:1;fill-rule:nonzero;stroke:none"
         d="m 3017.08,1991.92 h -224.03 v 14.75 h 147.06 v 0 h 76.97 v -14.75" /><path
         id="path280"
         style="fill:#b1c2e8;fill-opacity:1;fill-rule:nonzero;stroke:none"
         d="m 3299.56,1986.67 h -41.86 v 150.09 h 85.38 v -74.2 h -35.06 v -14.75 h 35.06 v -17.62 c 0,-8.67 -2.54,-16.74 -6.9,-23.52 h -28.16 v -14.75 h 12.28 c -6.16,-3.35 -13.23,-5.25 -20.74,-5.25" /><path
         id="path282"
         style="fill:#89a7dd;fill-opacity:1;fill-rule:nonzero;stroke:none"
         d="m 3308.02,2047.81 h 35.0625 v 14.75 H 3308.02 Z" /><path
         id="path284"
         style="fill:#89a7dd;fill-opacity:1;fill-rule:nonzero;stroke:none"
         d="m 3320.3,1991.92 h -12.28 v 14.75 h 28.16 c -3.96,-6.16 -9.42,-11.25 -15.88,-14.75" /><path
         id="path286"
         style="fill:#e8e8e7;fill-opacity:1;fill-rule:nonzero;stroke:none"
         d="m 3257.7,2484.24 h -55.17 v 64.89 c 0,78.65 -59.04,143.78 -135.13,153.39 v 60.35 c 94.03,-8.51 170.75,-77.91 190.3,-168.35 v -110.28" /><path
         id="path288"
         style="fill:#b1c2e8;fill-opacity:1;fill-rule:nonzero;stroke:none"
         d="m 2977.38,2686.7 c -9.95,15.15 -21.76,28.96 -35.12,41.11 h 74.82 v 14.75 h -62.11 c 28.13,13.57 59.66,21.19 92.94,21.19 6.57,0 13.07,-0.3 19.49,-0.88 v -60.35 c -6.39,0.81 -12.89,1.23 -19.49,1.23 -25.39,0 -49.37,-6.16 -70.53,-17.05" /><path
         id="path290"
         style="fill:#89a7dd;fill-opacity:1;fill-rule:nonzero;stroke:none"
         d="m 3017.08,2727.81 h -74.82 c -1.8,1.65 -3.64,3.27 -5.5,4.85 5.89,3.58 11.96,6.89 18.21,9.9 h 62.11 v -14.75" /><path
         id="path292"
         style="fill:#b1c2e8;fill-opacity:1;fill-rule:nonzero;stroke:none"
         d="m 3262.53,2484.24 h -4.83 v 110.28 c 3.16,-14.64 4.83,-29.82 4.83,-45.39 v -64.89" /><path
         id="path294"
         style="fill:#b1c2e8;fill-opacity:1;fill-rule:nonzero;stroke:none"
         d="m 2893.3,2484.24 h -60 v 20 h 60 v -20 m 0,34.75 h -60 v 30.14 c 0,3.69 0.09,7.36 0.27,11 h 60.11 c -0.25,-3.63 -0.38,-7.3 -0.38,-11 v -30.14 m 2.14,55.89 h -60.61 c 1.7,14.19 4.8,27.95 9.14,41.15 h 64.56 c -6.19,-12.84 -10.65,-26.66 -13.09,-41.15 m 21.22,55.9 h -67.23 c 6.02,14.58 13.61,28.37 22.55,41.14 h 41.34 c 6.26,-7.03 11.9,-14.63 16.82,-22.72 -4.93,-5.79 -9.44,-11.95 -13.48,-18.42 m -18.4,55.89 h -14.98 c 1.99,2.38 4.04,4.73 6.14,7.02 3.03,-2.23 5.99,-4.58 8.84,-7.02" /><path
         id="path296"
         style="fill:#89a7dd;fill-opacity:1;fill-rule:nonzero;stroke:none"
         d="m 2913.32,2671.92 h -41.34 c 3.55,5.08 7.32,10 11.3,14.75 h 14.98 c 5.35,-4.58 10.38,-9.5 15.06,-14.75" /><path
         id="path298"
         style="fill:#89a7dd;fill-opacity:1;fill-rule:nonzero;stroke:none"
         d="m 2908.53,2616.03 h -64.56 c 1.64,5 3.46,9.91 5.46,14.75 h 67.23 c -2.97,-4.76 -5.68,-9.68 -8.13,-14.75" /><path
         id="path300"
         style="fill:#89a7dd;fill-opacity:1;fill-rule:nonzero;stroke:none"
         d="m 2893.68,2560.13 h -60.11 c 0.26,4.96 0.68,9.89 1.26,14.75 h 60.61 c -0.82,-4.84 -1.41,-9.76 -1.76,-14.75" /><path
         id="path302"
         style="fill:#89a7dd;fill-opacity:1;fill-rule:nonzero;stroke:none"
         d="m 2833.3,2504.24 h 60 v 14.75 h -60 z" /><path
         id="path304"
         style="fill:#1d2a30;fill-opacity:1;fill-rule:nonzero;stroke:none"
         d="m 3049.56,2006.67 h -518.24 c -24.03,0 -43.52,19.48 -43.52,43.52 v 388.4 c 0,24.03 19.49,43.51 43.52,43.51 h 518.24 c 24.03,0 43.52,-19.48 43.52,-43.51 v -388.4 c 0,-24.04 -19.49,-43.52 -43.52,-43.52" /><path
         id="path306"
         style="fill:#45555c;fill-opacity:1;fill-rule:nonzero;stroke:none"
         d="m 2940.11,2006.67 h -408.79 c -23.24,0 -42.22,18.21 -43.45,41.14 -0.05,0.79 -0.07,1.58 -0.07,2.38 v 388.4 c 0,24.03 19.49,43.51 43.52,43.51 h 408.79 c 24.03,0 43.52,-19.48 43.52,-43.51 v -388.4 c 0,-24.04 -19.49,-43.52 -43.52,-43.52" /><path
         id="path308"
         style="fill:#1d2a30;fill-opacity:1;fill-rule:nonzero;stroke:none"
         d="m 2766.1,2303.73 c 0,32.78 -19.95,59.35 -44.56,59.35 -24.62,0 -44.57,-26.57 -44.57,-59.35 0,-24.93 11.56,-46.23 27.91,-55.02 l -8.24,-123.97 h 49.8 l -8.25,123.97 c 16.36,8.79 27.91,30.09 27.91,55.02" /><path
         id="path310"
         style="fill:#1d2a30;fill-opacity:1;fill-rule:nonzero;stroke:none"
         d="m 3012.53,2504.24 h -60 v 64.89 c 0,85.26 -69.36,154.62 -154.62,154.62 -85.25,0 -154.61,-69.36 -154.61,-154.62 v -64.89 h -60 v 64.89 c 0,118.34 96.27,214.62 214.61,214.62 118.34,0 214.62,-96.28 214.62,-214.62 v -64.89" /><path
         id="path312"
         style="fill:#758288;fill-opacity:1;fill-rule:nonzero;stroke:none"
         d="m 3012.53,2504.24 h -0.03 v 64.88 c 0,118.4 -96.3,214.6 -214.6,214.6 -49.7,0 -95.6,-17.1 -132.1,-45.7 31.1,21.8 69,34.5 109.9,34.5 108.3,0 196.1,-87.7 196.1,-196.01 v -72.27 h -19.27 v 64.89 0 c 0,29.29 -8.19,56.7 -22.39,80.07 -4.92,8.09 -10.56,15.69 -16.82,22.72 -7.19,8.06 -15.2,15.36 -23.9,21.77 -25.64,18.89 -57.3,30.06 -91.51,30.06 -19.44,0 -38.04,-3.61 -55.19,-10.18 -58.08,-22.27 -99.42,-78.62 -99.42,-144.44 v -64.89 h -60 v 64.89 c 0,118.34 96.27,214.62 214.61,214.62 118.34,0 214.62,-96.28 214.62,-214.62 v -9 -55.89" /><path
         id="path314"
         style="fill:#d4e1f5;fill-opacity:1;fill-rule:nonzero;stroke:none"
         d="m 2971.8,2504.22 h 40.6992 v 0.023 H 2971.8 Z" /><path
         id="path316"
         style="fill:#929c9e;fill-opacity:1;fill-rule:nonzero;stroke:none"
         d="m 3012.5,2504.24 h -40.7 v 72.27 c 0,108.31 -87.8,196.01 -196.1,196.01 -40.9,0 -78.8,-12.7 -109.9,-34.5 36.5,28.6 82.4,45.7 132.1,45.7 118.3,0 214.6,-96.2 214.6,-214.6 v -64.88" /><path
         id="path318"
         style="fill:#4870c0;fill-opacity:1;fill-rule:nonzero;stroke:none"
         d="m 2164.57,1419.32 h -242.41 v 9.34 h 54.75 c 7.61,0 14.06,5.54 15.38,12.98 l 24.48,145.82 4.8,28.69 h 83.04 l 74.27,-175.25 c 4.3,-10.25 -3.23,-21.58 -14.31,-21.58" /><path
         id="path320"
         style="fill:#8daee0;fill-opacity:1;fill-rule:nonzero;stroke:none"
         d="m 2164.57,1419.32 h -242.41 v 0.02 l 100.02,0.01 c 6.35,0 12.14,2.41 16.5,6.38 0.3,0.26 0.59,0.53 0.87,0.81 0.67,0.67 1.3,1.38 1.88,2.12 h 123.48 c 3.97,0 6.61,4.13 5.04,7.69 l -55.2,126.07 h 12.63 l 51.5,-121.52 c 0.84,-2 1.23,-4.05 1.23,-6.04 0,-8.21 -6.62,-15.54 -15.54,-15.54" /><path
         id="path322"
         style="fill:#678acf;fill-opacity:1;fill-rule:nonzero;stroke:none"
         d="m 2164.91,1428.66 h -123.48 c 0.42,0.53 0.81,1.08 1.19,1.65 2.58,3.88 4.08,8.54 4.08,13.56 0,5.78 -1.99,11.09 -5.34,15.28 -4.47,5.67 -11.39,9.3 -19.2,9.3 h -25.37 l 15.78,93.97 h 102.18 l 55.2,-126.07 c 1.57,-3.56 -1.07,-7.69 -5.04,-7.69" /><path
         id="path324"
         style="fill:#4870c0;fill-opacity:1;fill-rule:nonzero;stroke:none"
         d="m 2294.93,1562.42 h -484.88 c -4.84,0 -8.02,3.93 -7.11,8.78 l 68.88,364.32 c 0.92,4.84 5.59,8.77 10.43,8.77 h 484.88 c 4.84,0 8.03,-3.93 7.11,-8.77 l -68.88,-364.32 c -0.92,-4.85 -5.58,-8.78 -10.43,-8.78" /><path
         id="path326"
         style="fill:#8daee0;fill-opacity:1;fill-rule:nonzero;stroke:none"
         d="m 2294.93,1562.42 h -10 c 4.85,0 9.51,3.93 10.43,8.78 l 68.88,364.32 c 0.92,4.84 -2.27,8.77 -7.11,8.77 h -474.88 v 0 h 484.88 c 4.27,0 7.26,-3.06 7.27,-7.11 0,-0.38 -0.03,-0.76 -0.08,-1.15 -0.02,-0.17 -0.05,-0.34 -0.08,-0.51 l -7.68,-40.64 -2.79,-14.75 -7.78,-41.14 -2.79,-14.75 -38.2,-202.07 -9.64,-50.97 c -0.92,-4.85 -5.58,-8.78 -10.43,-8.78" /><path
         id="path328"
         style="fill:#1d2a30;fill-opacity:1;fill-rule:nonzero;stroke:none"
         d="m 2284.93,1562.42 h -484.88 c -4.84,0 -8.02,3.93 -7.11,8.78 l 68.88,364.32 c 0.92,4.84 5.59,8.77 10.43,8.77 h 484.88 c 4.84,0 8.03,-3.93 7.11,-8.77 l -68.88,-364.32 c -0.92,-4.85 -5.58,-8.78 -10.43,-8.78" /><path
         id="path330"
         style="fill:#4870c0;fill-opacity:1;fill-rule:nonzero;stroke:none"
         d="m 2278.5,1584.77 h -463.57 l 63.76,337.17 h 463.56 l -63.75,-337.17" /><path
         id="path332"
         style="fill:#4870c0;fill-opacity:1;fill-rule:nonzero;stroke:none"
         d="m 1470.48,1419.32 v 11.36 l 186.66,37.72 h 365.03 c 13.55,0 24.53,-10.98 24.53,-24.53 0,-13.55 -10.98,-24.52 -24.52,-24.52 l -551.7,-0.03" /><path
         id="path334"
         style="fill:#ffffff;fill-opacity:1;fill-rule:nonzero;stroke:none"
         d="m 1470.48,1419.35 h -0.02 v 11.3 h 0.02 v -11.3 m 121.79,35.94 c 0,0.01 -0.01,0.01 -0.01,0.02 l 64.9,13.14 h 339.63 -9.63 l -0.24,-0.05 h -329.78 l -64.87,-13.11" /><path
         id="path336"
         style="fill:#8daee0;fill-opacity:1;fill-rule:nonzero;stroke:none"
         d="m 1800.46,1419.35 h -329.98 v 11.3 l 19.39,3.92 2.31,-0.17 c 6.54,-2.74 15.5,-3.79 25.42,-3.79 33.07,0 76.77,11.7 76.77,11.7 v 0 0 c 0,4.78 -0.78,9.1 -2.1,12.98 l 64.87,13.11 h 329.78 l -186.46,-37.75 v -11.3" /><path
         id="path338"
         style="fill:#d8e6f6;fill-opacity:1;fill-rule:nonzero;stroke:none"
         d="m 2038.68,1425.73 c 0.99,0.9 1.91,1.88 2.74,2.93 h 0.01 c -0.58,-0.74 -1.21,-1.45 -1.88,-2.12 -0.28,-0.28 -0.57,-0.55 -0.87,-0.81" /><path
         id="path340"
         style="fill:#cddaf1;fill-opacity:1;fill-rule:nonzero;stroke:none"
         d="m 2041.43,1428.66 h -0.01 c 0.42,0.53 0.82,1.08 1.2,1.65 -0.38,-0.57 -0.77,-1.12 -1.19,-1.65" /><path
         id="path342"
         style="fill:#ffffff;fill-opacity:1;fill-rule:nonzero;stroke:none"
         d="m 1996.79,1468.4 h -9.87 l 0.24,0.05 h 9.63 v -0.05" /><path
         id="path344"
         style="fill:#cddaf1;fill-opacity:1;fill-rule:nonzero;stroke:none"
         d="m 2041.36,1459.15 c -4.49,5.64 -11.42,9.25 -19.19,9.25 h -25.38 v 0.05 h 25.37 c 7.81,0 14.73,-3.63 19.2,-9.3" /><path
         id="path346"
         style="fill:#bbd2ef;fill-opacity:1;fill-rule:nonzero;stroke:none"
         d="m 2022.16,1419.35 h -221.7 v 11.3 l 186.46,37.75 h 9.87 25.38 c 7.77,0 14.7,-3.61 19.19,-9.25 3.32,-4.2 5.29,-9.52 5.29,-15.3 0,-4.96 -1.48,-9.65 -4.03,-13.54 -0.38,-0.57 -0.78,-1.12 -1.2,-1.65 -0.83,-1.05 -1.75,-2.03 -2.74,-2.93 -4.4,-3.93 -10.16,-6.38 -16.52,-6.38" /><path
         id="path348"
         style="fill:#1d2a30;fill-opacity:1;fill-rule:nonzero;stroke:none"
         d="m 2180.11,111.43 h 49.94 l 89.75,1249.42 h -66.26 L 2180.11,111.43" /><path
         id="path350"
         style="fill:#ffffff;fill-opacity:1;fill-rule:nonzero;stroke:none"
         d="m 2186.76,225 5.71,97.012 h 0.02 L 2186.79,225 h -0.03 m 51.48,0.441 6.94,96.571 h 0.01 l -6.94,-96.571 h -0.01 m 7.13,99.071 h -0.01 l 8.95,124.617 h 0.02 l -8.96,-124.617 m -52.74,0 h -0.01 l 7.33,124.617 h 0.01 l -7.33,-124.617 m 61.88,127.117 h -0.02 l 32.03,445.992 h 0.06 l -32.07,-445.992 m -54.41,0 v 0 l 5.59,95.012 -5.59,-95.012 m 86.66,448.492 h -0.06 l 29.57,411.669 h 0.1 l -0.95,-13 -28.66,-398.669" /><path
         id="path352"
         style="fill:#f0f0f0;fill-opacity:1;fill-rule:nonzero;stroke:none"
         d="m 2254.33,449.129 h -0.02 l 0.18,2.5 h 0.02 l -0.18,-2.5 m -54.37,0 h -0.01 l 0.15,2.5 v 0 l -0.14,-2.5" /><path
         id="path354"
         style="fill:#f0f0f0;fill-opacity:1;fill-rule:nonzero;stroke:none"
         d="m 2245.19,322.012 h -0.01 l 0.18,2.5 h 0.01 l -0.18,-2.5 m -52.7,0 h -0.02 l 0.15,2.5 h 0.01 l -0.14,-2.5" /><path
         id="path356"
         style="fill:#f0f0f0;fill-opacity:1;fill-rule:nonzero;stroke:none"
         d="m 2286.58,897.621 h -0.06 l 0.18,2.5 h 0.06 l -0.18,-2.5" /><path
         id="path358"
         style="fill:#f9f9f9;fill-opacity:1;fill-rule:nonzero;stroke:none"
         d="m 2230.05,111.43 h -49.97 l 6.68,113.57 h 0.03 l -6.68,-113.57 h 49.94 l 8.19,114.011 h 0.01 l -8.2,-114.011" /><path
         id="path360"
         style="fill:#d4d3d1;fill-opacity:1;fill-rule:nonzero;stroke:none"
         d="m 2316.37,1311.79 h -0.1 l 1.08,14.95 0.21,2.82 h 0.11 l -1.3,-17.77" /><path
         id="path362"
         style="fill:#304047;fill-opacity:1;fill-rule:nonzero;stroke:none"
         d="m 2230.05,111.43 h -49.94 l 6.68,113.57 5.7,97.012 0.14,2.5 7.33,124.617 0.14,2.5 5.59,95.012 44.26,752.149 0.17,2.98 h 65.3 l 1.93,24.97 -1.08,-14.95 -29.57,-411.669 -0.18,-2.5 -32.03,-445.992 -0.18,-2.5 -8.95,-124.617 -0.18,-2.5 -6.94,-96.571 -8.19,-114.011" /><path
         id="path364"
         style="fill:#cecdcc;fill-opacity:1;fill-rule:nonzero;stroke:none"
         d="m 2250.06,1301.77 h -0.11 l 0.63,10.02 h 0.07 l -0.59,-10.02" /><path
         id="path366"
         style="fill:#a0a0a0;fill-opacity:1;fill-rule:nonzero;stroke:none"
         d="m 2250.65,1311.79 h -0.07 l 1.11,17.77 h 0.01 l -1.05,-17.77" /><path
         id="path368"
         style="fill:#182124;fill-opacity:1;fill-rule:nonzero;stroke:none"
         d="m 2250.12,1301.77 h -0.06 l 0.59,10.02 1.05,17.77 h 0.09 l -1.67,-27.79" /><path
         id="path370"
         style="fill:#a6a6a5;fill-opacity:1;fill-rule:nonzero;stroke:none"
         d="m 2317.35,1326.74 0.2,2.82 h 0.01 l -0.21,-2.82" /><path
         id="path372"
         style="fill:#263136;fill-opacity:1;fill-rule:nonzero;stroke:none"
         d="m 2315.42,1301.77 h -65.3 l 1.67,27.79 h 65.76 l -0.2,-2.82 -1.93,-24.97" /><path
         id="path374"
         style="fill:#1d2a30;fill-opacity:1;fill-rule:nonzero;stroke:none"
         d="m 1813.56,111.43 h 49.95 l 8.15,1249.42 h -66.26 l 8.16,-1249.42" /><path
         id="path376"
         style="fill:#f9f9f9;fill-opacity:1;fill-rule:nonzero;stroke:none"
         d="m 1863.5,111.43 h -49.98 l -0.03,4.269 c 0.02,0.012 0.03,0.02 0.04,0.02 l 0.03,-4.289 h 49.94" /><path
         id="path378"
         style="fill:#ffffff;fill-opacity:1;fill-rule:nonzero;stroke:none"
         d="m 1812.82,219.148 -0.68,102.864 h 0.04 l 0.68,-102.864 h -0.04 m -0.65,105.364 h -0.04 l -0.78,117.937 c 0.02,0.051 0.03,0.082 0.05,0.129 l 0.77,-118.066" /><path
         id="path380"
         style="fill:#f0f0f0;fill-opacity:1;fill-rule:nonzero;stroke:none"
         d="m 1812.18,322.012 h -0.04 l -0.01,2.5 h 0.04 l 0.01,-2.5" /><path
         id="path382"
         style="fill:#f9f9f9;fill-opacity:1;fill-rule:nonzero;stroke:none"
         d="m 1813.33,147.039 c -0.01,0 -0.03,0 -0.04,0 l -0.47,72.109 h 0.04 l 0.47,-72.109" /><path
         id="path384"
         style="fill:#ffffff;fill-opacity:1;fill-rule:nonzero;stroke:none"
         d="m 1866.7,600.488 0.18,27.004 v 0 l -0.18,-27.004 m 3.05,465.602 h -0.01 l 0.58,88.92 h 0.01 l -0.58,-88.92 m -62.64,32.75 c -0.02,0.01 -0.03,0.02 -0.05,0.03 l -0.37,56.14 h 0.05 l 0.37,-56.17" /><path
         id="path386"
         style="fill:#304047;fill-opacity:1;fill-rule:nonzero;stroke:none"
         d="m 1863.5,111.43 h -49.94 l -0.03,4.289 c 16.8,8.621 12.39,29.922 1.35,31.133 -0.51,0.058 -1.03,0.117 -1.55,0.187 l -0.47,72.109 -0.68,102.864 -0.01,2.5 -0.77,118.066 c 17.72,54.754 37.45,118.934 55.48,184.914 l -0.18,-27.004 -3.2,-489.058 m 6.24,954.66 c -17.37,10.99 -38.56,22 -62.63,32.75 l -0.37,56.17 h 63.58 l -0.58,-88.92" /><path
         id="path388"
         style="fill:#cecdcc;fill-opacity:1;fill-rule:nonzero;stroke:none"
         d="m 1870.35,1155.01 h -0.02 l 0.02,2.25 1.11,172.3 v 0 l -1.11,-174.55 m -63.66,0 h -0.02 l -1.12,174.55 h 0.01 l 1.11,-172.3 0.02,-2.25" /><path
         id="path390"
         style="fill:#cecdcb;fill-opacity:1;fill-rule:nonzero;stroke:none"
         d="m 1870.33,1155.01 h -0.01 l 1.14,174.55 -1.11,-172.3 -0.02,-2.25 m -63.59,0 h -0.05 l -0.02,2.25 -1.11,172.3 h 0.04 l 1.14,-174.55" /><path
         id="path392"
         style="fill:#263136;fill-opacity:1;fill-rule:nonzero;stroke:none"
         d="m 1870.32,1155.01 h -63.58 l -1.14,174.55 h 65.86 l -1.14,-174.55" /><path
         id="path394"
         style="fill:#1d2a30;fill-opacity:1;fill-rule:nonzero;stroke:none"
         d="m 1283.28,111.43 h 49.95 l 89.74,1249.42 H 1356.7 L 1283.28,111.43" /><path
         id="path396"
         style="fill:#ffffff;fill-opacity:1;fill-rule:nonzero;stroke:none"
         d="m 1288.56,201.648 3.98,67.684 0.03,0.109 -3.99,-67.793 h -0.02 m 51.31,2.321 6.4,89.043 0.01,0.047 -6.4,-89.09 h -0.01" /><path
         id="path398"
         style="fill:#f9f9f9;fill-opacity:1;fill-rule:nonzero;stroke:none"
         d="m 1333.23,111.43 h -49.98 l 5.31,90.218 h 0.02 l -5.3,-90.218 h 49.95 l 6.64,92.539 h 0.01 l -6.65,-92.539" /><path
         id="path400"
         style="fill:#ffffff;fill-opacity:1;fill-rule:nonzero;stroke:none"
         d="m 1411.67,1202.62 c -0.02,0 -0.04,0 -0.07,0.01 l 4.45,61.9 h 0.08 l -4.46,-61.91 m 7.82,108.45 h -0.1 l 1.16,16.1 0.18,2.39 h 0.12 l -1.36,-18.49" /><path
         id="path402"
         style="fill:#304047;fill-opacity:1;fill-rule:nonzero;stroke:none"
         d="m 1333.23,111.43 h -49.95 l 5.3,90.218 3.99,67.793 2.1,9.739 45.85,-3.051 5.75,16.883 -6.4,-89.043 -6.64,-92.539 m 78.37,1091.2 c -16.64,1.96 -32.98,3.54 -48.86,4.7 l 7.12,57.2 h 46.19 l -4.45,-61.9 m 7.79,108.44 h -0.08 l 1.24,16.1 -1.16,-16.1" /><path
         id="path404"
         style="fill:#cecdcb;fill-opacity:1;fill-rule:nonzero;stroke:none"
         d="m 1420.55,1327.17 0.17,2.39 h 0.01 l -0.18,-2.39" /><path
         id="path406"
         style="fill:#263136;fill-opacity:1;fill-rule:nonzero;stroke:none"
         d="m 1419.31,1311.07 h -43.68 c 0.69,5.51 1.49,11.69 2.42,18.49 h 42.67 l -0.17,-2.39 -1.24,-16.1" /><path
         id="path408"
         style="fill:#1d2a30;fill-opacity:1;fill-rule:nonzero;stroke:none"
         d="m 2751.48,111.43 h 49.95 l -73.42,1249.42 h -66.26 l 89.73,-1249.42" /><path
         id="path410"
         style="fill:#ffffff;fill-opacity:1;fill-rule:nonzero;stroke:none"
         d="M 2716.08,604.43 2695,897.621 h 0.02 l 21.06,-293.191 m -21.24,295.691 h -0.02 l -28.66,398.669 -0.95,13 h 0.06 l 29.57,-411.669" /><path
         id="path412"
         style="fill:#f0f0f0;fill-opacity:1;fill-rule:nonzero;stroke:none"
         d="M 2695.02,897.621 H 2695 l -0.18,2.5 h 0.02 l 0.18,-2.5" /><path
         id="path414"
         style="fill:#d4d3d1;fill-opacity:1;fill-rule:nonzero;stroke:none"
         d="m 2665.27,1311.79 h -0.06 l -1.31,17.77 h 0.09 l 1.28,-17.77" /><path
         id="path416"
         style="fill:#304047;fill-opacity:1;fill-rule:nonzero;stroke:none"
         d="m 2801.42,111.43 h -49.9 l -35.44,493 -21.06,293.191 -0.18,2.5 -29.57,411.669 -1.28,17.77 h 0.02 l 2.15,-27.79 h 65.29 l 0.18,-2.98 69.79,-1187.36" /><path
         id="path418"
         style="fill:#cecdcc;fill-opacity:1;fill-rule:nonzero;stroke:none"
         d="m 2731.63,1301.77 h -0.15 l -0.59,10.02 h 0.11 l 0.63,-10.02" /><path
         id="path420"
         style="fill:#a0a0a0;fill-opacity:1;fill-rule:nonzero;stroke:none"
         d="m 2731,1311.79 h -0.11 l -1.04,17.77 h 0.03 l 1.12,-17.77" /><path
         id="path422"
         style="fill:#182124;fill-opacity:1;fill-rule:nonzero;stroke:none"
         d="m 2731.48,1301.77 h -0.03 l -1.66,27.79 h 0.06 l 1.04,-17.77 0.59,-10.02" /><path
         id="path424"
         style="fill:#263136;fill-opacity:1;fill-rule:nonzero;stroke:none"
         d="m 2731.45,1301.77 h -65.29 l -2.15,27.79 h 65.78 l 1.66,-27.79" /><path
         id="path426"
         style="fill:#4870c0;fill-opacity:1;fill-rule:nonzero;stroke:none"
         d="m 1325.8,1329.56 h 1433.11 c 11.94,0 21.62,9.68 21.62,21.62 v 40.96 H 1304.18 v -40.96 c 0,-11.94 9.68,-21.62 21.62,-21.62" /><path
         id="path428"
         style="fill:#8daee0;fill-opacity:1;fill-rule:nonzero;stroke:none"
         d="M 2758.91,1329.56 H 1378.05 c 1.27,9.28 2.79,19.73 4.6,31.29 h 1397.88 v -9.67 c 0,-1.34 -0.12,-2.66 -0.36,-3.94 v 0 c -1.85,-10.06 -10.66,-17.68 -21.26,-17.68" /><path
         id="path430"
         style="fill:#678acf;fill-opacity:1;fill-rule:nonzero;stroke:none"
         d="M 2780.53,1360.85 H 1382.65 c 1.13,7.28 2.38,15 3.75,23.13 h 1394.13 v -23.13" /><path
         id="path432"
         style="fill:#4870c0;fill-opacity:1;fill-rule:nonzero;stroke:none"
         d="m 1273.22,1383.98 h 1538.27 c 9.73,0 17.63,7.9 17.63,17.63 0,9.73 -7.9,17.63 -17.63,17.63 H 1273.22 c -9.73,0 -17.62,-7.9 -17.62,-17.63 0,-9.73 7.89,-17.63 17.62,-17.63" /><path
         id="path434"
         style="fill:#8daee0;fill-opacity:1;fill-rule:nonzero;stroke:none"
         d="M 2811.49,1383.98 H 1386.4 c 1.86,11 3.93,22.77 6.26,35.26 h 1418.83 c 9.73,0 17.63,-7.9 17.63,-17.63 0,-9.73 -7.9,-17.63 -17.63,-17.63" /><path
         id="path436"
         style="fill:#799bd7;fill-opacity:1;fill-rule:nonzero;stroke:none"
         d="m 2164.5,1733.06 h -260.06 c -4.47,0 -8.66,1.97 -11.5,5.42 -2.85,3.45 -3.99,7.95 -3.13,12.34 l 6.24,31.93 c 1.74,8.94 9.61,15.43 18.71,15.43 h 260.06 c 4.47,0 8.66,-1.98 11.5,-5.43 2.85,-3.45 3.98,-7.94 3.13,-12.34 l -6.24,-31.93 c -1.74,-8.94 -9.61,-15.42 -18.71,-15.42" /><path
         id="path438"
         style="fill:#ffffff;fill-opacity:1;fill-rule:nonzero;stroke:none"
         d="m 2164.5,1738.06 h -260.06 c -6.23,0 -10.91,5.69 -9.72,11.8 l 6.23,31.94 c 1.29,6.6 7.08,11.37 13.81,11.37 h 260.06 c 6.23,0 10.91,-5.69 9.72,-11.8 l -6.23,-31.94 c -1.29,-6.6 -7.08,-11.37 -13.81,-11.37" /><path
         id="path440"
         style="fill:#1d2a30;fill-opacity:1;fill-rule:nonzero;stroke:none"
         d="m 1951.69,1765.62 c -1.63,-8.34 -9.07,-15.11 -16.62,-15.11 -7.56,0 -12.36,6.77 -10.73,15.11 1.63,8.34 9.07,15.1 16.62,15.1 7.56,0 12.36,-6.76 10.73,-15.1" /><path
         id="path442"
         style="fill:#1d2a30;fill-opacity:1;fill-rule:nonzero;stroke:none"
         d="m 1992.33,1765.62 c -1.62,-8.34 -9.06,-15.11 -16.62,-15.11 -7.55,0 -12.35,6.77 -10.72,15.11 1.63,8.34 9.07,15.1 16.62,15.1 7.55,0 12.35,-6.76 10.72,-15.1" /><path
         id="path444"
         style="fill:#1d2a30;fill-opacity:1;fill-rule:nonzero;stroke:none"
         d="m 2032.98,1765.62 c -1.63,-8.34 -9.07,-15.11 -16.62,-15.11 -7.56,0 -12.36,6.77 -10.73,15.11 1.63,8.34 9.07,15.1 16.63,15.1 7.54,0 12.35,-6.76 10.72,-15.1" /><path
         id="path446"
         style="fill:#1d2a30;fill-opacity:1;fill-rule:nonzero;stroke:none"
         d="m 2073.63,1765.62 c -1.63,-8.34 -9.07,-15.11 -16.63,-15.11 -7.55,0 -12.35,6.77 -10.72,15.11 1.63,8.34 9.07,15.1 16.62,15.1 7.55,0 12.35,-6.76 10.73,-15.1" /><path
         id="path448"
         style="fill:#1d2a30;fill-opacity:1;fill-rule:nonzero;stroke:none"
         d="m 2114.27,1765.62 c -1.63,-8.34 -9.07,-15.11 -16.62,-15.11 -7.55,0 -12.36,6.77 -10.73,15.11 1.63,8.34 9.07,15.1 16.62,15.1 7.56,0 12.36,-6.76 10.73,-15.1" /><path
         id="path450"
         style="fill:#1d2a30;fill-opacity:1;fill-rule:nonzero;stroke:none"
         d="m 2154.92,1765.62 c -1.63,-8.34 -9.08,-15.11 -16.62,-15.11 -7.56,0 -12.36,6.77 -10.73,15.11 1.62,8.34 9.07,15.1 16.62,15.1 7.55,0 12.36,-6.76 10.73,-15.1" /><path
         id="path452"
         style="fill:#799bd7;fill-opacity:1;fill-rule:nonzero;stroke:none"
         d="m 2240.41,1733.06 h -39.59 c -3.51,0 -6.74,1.47 -8.85,4.05 -2.15,2.61 -2.97,6.14 -2.26,9.69 l 7.87,39.59 c 1.31,6.61 7.55,11.79 14.21,11.79 h 39.59 c 3.52,0 6.75,-1.48 8.85,-4.06 2.15,-2.61 2.97,-6.14 2.26,-9.69 l -7.87,-39.59 c -1.31,-6.61 -7.55,-11.78 -14.21,-11.78" /><path
         id="path454"
         style="fill:#1d2a30;fill-opacity:1;fill-rule:nonzero;stroke:none"
         d="m 2200.83,1738.06 h 39.59 c 4.28,0 8.45,3.47 9.3,7.76 l 7.87,39.59 c 0.86,4.29 -1.93,7.76 -6.21,7.76 h -39.59 c -4.29,0 -8.46,-3.47 -9.3,-7.76 l -7.88,-39.59 c -0.86,-4.29 1.93,-7.76 6.22,-7.76" /><path
         id="path456"
         style="fill:#4870c0;fill-opacity:1;fill-rule:nonzero;stroke:none"
         d="m 2221.14,1748.12 -1.62,0.73 c -0.78,0.97 -0.47,2.56 0.7,3.53 l 15.86,13.24 -10.59,13.23 c -0.79,0.97 -0.47,2.56 0.7,3.53 1.17,0.98 2.75,0.98 3.53,0 l 12.02,-15 c 0.78,-0.97 0.46,-2.56 -0.71,-3.53 l -17.98,-15 -1.91,-0.73" /><path
         id="path458"
         style="fill:#4870c0;fill-opacity:1;fill-rule:nonzero;stroke:none"
         d="m 2239.12,1763.12 h -27.03 c -1.38,0 -2.28,1.12 -2.01,2.5 0.28,1.37 1.62,2.5 3,2.5 h 27.03 c 1.38,0 2.28,-1.13 2,-2.5 -0.27,-1.38 -1.61,-2.5 -2.99,-2.5" /><path
         id="path460"
         style="fill:#4870c0;fill-opacity:1;fill-rule:nonzero;stroke:none"
         d="m 1362.7,2373.68 h 215.56 c 22.77,0 41.23,18.46 41.23,41.23 v 215.56 c 0,22.77 -18.46,41.23 -41.23,41.23 H 1362.7 c -22.77,0 -41.23,-18.46 -41.23,-41.23 v -215.56 c 0,-22.77 18.46,-41.23 41.23,-41.23" /><path
         id="path462"
         style="fill:#4870c0;fill-opacity:1;fill-rule:nonzero;stroke:none"
         d="m 1447.17,2384.81 23.31,-100.22 23.3,100.22 z" /><path
         id="path464"
         style="fill:#799bd7;fill-opacity:1;fill-rule:nonzero;stroke:none"
         d="m 1470.48,2431.7 -2.61,1.59 c -87.8,53.64 -86.19,144.53 -86.16,145.44 l 0.1,3.2 88.67,37.76 88.67,-37.76 0.1,-3.2 c 0.02,-0.91 1.63,-91.8 -86.16,-145.44 l -2.61,-1.59 m 0,182.56 -83.77,-35.68 c 0,0 -2.57,-88.28 83.77,-141.03 v 0 c 86.34,52.75 83.77,141.03 83.77,141.03 l -83.77,35.68" /><path
         id="path466"
         style="fill:#ccdcf3;fill-opacity:1;fill-rule:nonzero;stroke:none"
         d="m 1470.48,2437.55 v 176.71 l 83.77,-35.68 c 0,0 2.57,-88.28 -83.77,-141.03" /><path
         id="path468"
         style="fill:#b0c8eb;fill-opacity:1;fill-rule:nonzero;stroke:none"
         d="m 1470.48,2437.55 c -86.34,52.75 -83.77,141.03 -83.77,141.03 l 83.77,35.68 v -176.71 0" /><path
         id="path470"
         style="fill:#f47272;fill-opacity:1;fill-rule:nonzero;stroke:none"
         d="m 1389.98,1484.51 69.89,-10.48 c 0,0 23.73,7.85 48.79,10.48 25.06,2.64 54.06,0 54.06,0 0,0 31.65,-11.87 31.65,-42.2 0,0 -73.84,-19.78 -102.19,-7.91 l -102.2,7.91 v 42.2" /><path
         id="path472"
         style="fill:#cd5a58;fill-opacity:1;fill-rule:nonzero;stroke:none"
         d="m 1517.6,1430.61 c -9.92,0 -18.88,1.05 -25.42,3.79 l -95.2,7.37 c 0.33,1.71 0.67,3.43 1.02,5.17 2.23,11.28 4.65,23.05 7.28,35.28 l 54.59,-8.19 c 0,0 23.73,7.85 48.79,10.48 8.35,0.88 17.14,1.17 25.15,1.17 16.02,0 28.91,-1.17 28.91,-1.17 0,0 31.65,-11.87 31.65,-42.2 0,0 -43.7,-11.7 -76.77,-11.7" /><path
         id="path474"
         style="fill:#c53434;fill-opacity:1;fill-rule:nonzero;stroke:none"
         d="m 1563.43,1957.26 c 0,0 1.79,-25.15 8.39,-42.37 0,0 -11.37,-7.65 -24.46,0.27 l 16.07,42.1" /><path
         id="path476"
         style="fill:#1d2a30;fill-opacity:1;fill-rule:nonzero;stroke:none"
         d="m 1590.65,1977.17 c -2.68,-6.47 -7.48,-10.63 -10.71,-9.28 -3.24,1.34 -3.69,7.67 -1,14.14 2.68,6.47 7.48,10.63 10.71,9.29 3.24,-1.34 3.68,-7.68 1,-14.15" /><path
         id="path478"
         style="fill:#1d2a30;fill-opacity:1;fill-rule:nonzero;stroke:none"
         d="m 1609.02,2006.31 c -0.29,0.14 -11.59,7.12 -25.86,7.17 -5.33,0 -11.1,-1.02 -16.69,-3.87 -1.78,-0.91 -2.49,-3.09 -1.58,-4.87 0.91,-1.79 3.09,-2.49 4.88,-1.59 4.41,2.25 8.97,3.08 13.39,3.08 5.9,0.01 11.51,-1.52 15.59,-3.08 2.05,-0.78 3.71,-1.56 4.84,-2.13 l 1.29,-0.68 0.38,-0.22 c 1.71,-1.04 3.94,-0.5 4.98,1.21 1.04,1.71 0.49,3.94 -1.22,4.98" /><path
         id="path480"
         style="fill:#f47272;fill-opacity:1;fill-rule:nonzero;stroke:none"
         d="m 1543.86,1902.83 c -2.25,-2.81 -4.57,-5.51 -7.01,-7.98 -14.56,-15.09 -32.86,-24.65 -51.93,-28.52 -5.01,-1.05 -10.09,-1.7 -15.17,-1.97 -26.83,-1.36 -53.62,8.23 -72.38,28.94 -7.72,8.37 -14.16,18.76 -18.61,30.99 -17.82,47.99 0.35,85.85 25.95,152.29 5.29,14.4 13.82,27.38 25.05,37.76 39.25,36.76 100.9,34.64 137.57,-4.59 51.82,-54.65 16.95,-154.95 -23.47,-206.92" /><path
         id="path482"
         style="fill:#cd5a58;fill-opacity:1;fill-rule:nonzero;stroke:none"
         d="m 1464.76,1864.23 c -25.13,0 -49.79,9.64 -67.39,29.07 10.22,10.46 21.52,16.76 21.52,16.76 0,0 41.4,-11.54 66.03,-43.73 -5.01,-1.05 -10.09,-1.7 -15.17,-1.97 -1.66,-0.09 -3.33,-0.13 -4.99,-0.13" /><path
         id="path484"
         style="fill:#f47272;fill-opacity:1;fill-rule:nonzero;stroke:none"
         d="m 1269.35,1863.84 c 6.55,-46.86 108.93,-64.35 108.93,-64.35 0,0 50.53,-23 52.59,-2.95 -20.9,24.19 -23.21,45.28 -16,63.78 4.21,10.77 11.68,20.62 20.59,29.74 4.62,4.83 9.73,9.38 14.91,13.76 l -31.23,128.22 c -22.5,-48.73 -99.39,-161.27 -149.79,-168.2" /><path
         id="path486"
         style="fill:#1d2a30;fill-opacity:1;fill-rule:nonzero;stroke:none"
         d="m 1561.53,2146.02 c 0,0 21.86,2.72 38.64,-38.07 14.13,-34.37 -19.13,-41.79 -17.69,-78.34 1.43,-36.55 -31.93,-56.8 -31.93,-56.8 0,0 -28.07,-24.2 -51.93,-11.07 0,0 -31.22,-15.31 -39.44,-42.03 -8.21,-26.72 -56.51,21.54 -100.03,14.23 0,0 -29.43,27.52 -27.25,94.32 1.43,44.09 20.96,83.77 20.96,83.77 0,0 12.7,39.79 62.45,62.01 49.75,22.23 136.85,5.33 146.22,-28.02" /><path
         id="path488"
         style="fill:#f47272;fill-opacity:1;fill-rule:nonzero;stroke:none"
         d="m 1492.63,1981.42 c -2.5,-15.84 0.57,-29.7 8.54,-38.53 10.67,-11.56 27.73,3.11 34.64,23.44 5.99,18.08 8.04,46.42 -7.53,49.59 -15.57,3.18 -32.37,-15 -35.65,-34.5" /><path
         id="path490"
         style="fill:#1d2a30;fill-opacity:1;fill-rule:nonzero;stroke:none"
         d="m 1503.6,1825.14 c -14.3,-39.8 -27.1,-78.21 -38.4,-115 -7.2,-22.81 -13.8,-45.1 -19.9,-66.6 -5.1,-18.1 -9.8,-35.6 -14.2,-52.6 -2.1,-8.2 -4.2,-16.3 -6.2,-24.3 -11,-44.1 -19.9,-84.31 -26.9,-119.7 -21,-105.4 -25.9,-168.7 -25.9,-168.7 l -392.498,49.1 c 13.601,67.4 24.198,126.3 38.998,189.8 8.2,34.8 17.5,71 29.5,110.7 8.4,28.5 18.2,58.8 29.8,91.7 39.4,113 75.7,144.3 75.7,144.3 151,24.2 350,-38.7 350,-38.7" /><path
         id="path492"
         style="fill:#f47272;fill-opacity:1;fill-rule:nonzero;stroke:none"
         d="m 1634.11,1477.23 69.89,-10.48 c 0,0 23.74,7.84 48.79,10.48 25.06,2.63 54.07,0 54.07,0 0,0 31.65,-11.88 31.65,-42.2 0,0 -73.85,-19.79 -102.2,-7.92 l -102.2,7.92 v 42.2" /><path
         id="path494"
         style="fill:#f9a95e;fill-opacity:1;fill-rule:nonzero;stroke:none"
         d="m 1200.85,184.5 73.09,-1.32 36.4,168.57 -73,1.23 -36.49,-168.48" /><path
         id="path496"
         style="fill:#cecdcc;fill-opacity:1;fill-rule:nonzero;stroke:none"
         d="m 1217.23,260.148 -0.07,0.012 5.18,23.82 0.05,-0.011 -5.16,-23.821" /><path
         id="path498"
         style="fill:#ca8849;fill-opacity:1;fill-rule:nonzero;stroke:none"
         d="m 1289.51,255.309 -72.28,4.839 5.16,23.821 72.28,-4.789 -5.16,-23.871" /><path
         id="path500"
         style="fill:#4870c0;fill-opacity:1;fill-rule:nonzero;stroke:none"
         d="M 1435.71,597.109 C 1387.52,413.922 1329.25,282.73 1329.25,282.73 l -133.38,10.18 c 0,0 54.73,213.738 74.55,409.481 12.28,120.828 11.19,220.839 -24.18,228.57 -22.27,4.91 -74.37,4.719 -141.1,3.18 v 248.739 c 187.29,-38.46 373.66,-111 387.85,-169.19 19.81,-81.909 -14.82,-255.292 -57.28,-416.581" /><path
         id="path502"
         style="fill:#4870c0;fill-opacity:1;fill-rule:nonzero;stroke:none"
         d="m 1181.72,286.672 158.8,-10.543 23.37,68.641 -174.95,8.179 -7.22,-66.277" /><path
         id="path504"
         style="fill:#658acf;fill-opacity:1;fill-rule:nonzero;stroke:none"
         d="m 1340.52,276.129 -45.85,3.051 -72.28,4.789 -40.67,2.703 7.22,66.277 174.95,-8.179 -6.9,-20.258 -0.85,-2.5 -15.62,-45.883" /><path
         id="path506"
         style="fill:#4870c0;fill-opacity:1;fill-rule:nonzero;stroke:none"
         d="m 1293.8,187.43 c 8.81,4.859 21.31,10.199 25.97,8.039 0.98,-0.457 1.65,-1.41 1.76,-2.489 0.55,-2.14 -0.05,-4.398 -1.59,-5.98 -3.66,-3.141 -13.26,-2.949 -26.14,0.43 z m -1.05,3.629 -1.5,-0.84 c 0.28,6.922 1.59,18.461 6.17,22.34 1,0.941 2.36,1.421 3.72,1.32 l 0.83,-0.117 c 2.41,-0.43 2.98,-1.66 3.06,-2.66 0.42,-4.942 -6.07,-14.692 -12.28,-20.043 z m -7.84,-4.227 1.53,-0.191 1.84,-0.692 0.31,-0.508 0.62,0.047 c 6.19,-1.929 12.56,-3.207 19.03,-3.769 4.81,-0.86 9.77,0.121 13.9,2.73 2.62,2.34 3.64,5.981 2.65,9.36 -0.25,2.203 -1.67,4.113 -3.67,5.07 -4.68,2.152 -13.1,-0.547 -20.24,-3.719 4.51,5.59 7.84,12.172 7.2,16.692 -0.46,2.968 -3.22,5.238 -6.21,5.519 -2.63,0.488 -6.05,-0.211 -8.12,-1.902 -7.61,-6.571 -8.84,-27.231 -8.84,-28.5 v -0.059 -0.012 -0.066" /><path
         id="path508"
         style="fill:#1d2a30;fill-opacity:1;fill-rule:nonzero;stroke:none"
         d="m 1283.15,195.738 -81.82,5.114 c -2.84,0.296 -5.4,-1.762 -5.7,-4.602 l -0.01,-0.09 -8.03,-64.551 c -0.44,-7.05 4.88,-13.148 11.93,-13.668 28.58,-1.32 42.29,-0.531 78.31,-2.48 22.1,-1.332 65.66,-6.031 96.16,-3.082 30.5,2.961 26.76,33.031 13.59,34.473 -31.23,3.546 -72.59,26.5 -92.14,43.91 -3.43,2.98 -7.75,4.726 -12.29,4.976" /><path
         id="path510"
         style="fill:#395eb4;fill-opacity:1;fill-rule:nonzero;stroke:none"
         d="m 1435.71,597.109 c -49.82,31.551 -108.1,68.641 -165.29,105.282 4.4,43.308 7.09,83.937 7.09,118.609 0,10.719 -0.26,20.879 -0.8,30.371 h 213.41 c -11.07,-77.551 -31.61,-167.652 -54.41,-254.262 v 0" /><path
         id="path512"
         style="fill:#f9a95e;fill-opacity:1;fill-rule:nonzero;stroke:none"
         d="m 1628.15,184.5 73.09,-1.32 36.41,168.57 -73.01,1.23 -36.49,-168.48" /><path
         id="path514"
         style="fill:#cecdcc;fill-opacity:1;fill-rule:nonzero;stroke:none"
         d="m 1644.54,260.148 -0.08,0.012 5.18,23.82 0.06,-0.011 -5.16,-23.821" /><path
         id="path516"
         style="fill:#ca8849;fill-opacity:1;fill-rule:nonzero;stroke:none"
         d="m 1716.81,255.309 -72.27,4.839 5.16,23.821 72.27,-4.789 -5.16,-23.871" /><path
         id="path518"
         style="fill:#4870c0;fill-opacity:1;fill-rule:nonzero;stroke:none"
         d="m 1362.74,1207.33 11.76,94.44 -381.73,62.83 c 0,0 -124.836,-247.34 -63.735,-368.561 37.707,-74.82 320.065,-69.32 528.795,-63.82 101.54,2.672 185.66,5.351 215.71,-1.219 92.78,-20.289 -50.36,-638.051 -50.36,-638.051 l 133.37,-10.187 c 0,0 206.08,556 163.71,730.888 -18.49,76.31 -332.99,177.35 -557.52,193.68" /><path
         id="path520"
         style="fill:#4870c0;fill-opacity:1;fill-rule:nonzero;stroke:none"
         d="m 1609.02,286.672 158.81,-10.543 23.37,68.641 -174.96,8.179 -7.22,-66.277" /><path
         id="path522"
         style="fill:#658acf;fill-opacity:1;fill-rule:nonzero;stroke:none"
         d="m 1767.83,276.129 -45.86,3.051 -72.27,4.789 -40.68,2.703 7.22,66.277 174.96,-8.179 -6.9,-20.258 -0.85,-2.5 -15.62,-45.883" /><path
         id="path524"
         style="fill:#4870c0;fill-opacity:1;fill-rule:nonzero;stroke:none"
         d="m 1721.11,187.43 c 8.81,4.859 21.31,10.199 25.96,8.039 0.99,-0.457 1.66,-1.41 1.76,-2.489 0.56,-2.14 -0.05,-4.398 -1.59,-5.98 -3.66,-3.141 -13.25,-2.949 -26.13,0.43 z m -1.05,3.629 -1.5,-0.84 c 0.28,6.922 1.58,18.461 6.17,22.34 1,0.941 2.35,1.421 3.72,1.32 l 0.83,-0.117 c 2.4,-0.43 2.97,-1.66 3.05,-2.66 0.42,-4.942 -6.07,-14.692 -12.27,-20.043 z m -7.84,-4.227 1.53,-0.191 1.84,-0.692 0.3,-0.508 0.62,0.047 c 6.2,-1.929 12.57,-3.207 19.03,-3.769 4.82,-0.86 9.77,0.121 13.9,2.73 2.63,2.34 3.65,5.981 2.65,9.36 -0.25,2.203 -1.67,4.113 -3.66,5.07 -4.69,2.152 -13.11,-0.547 -20.24,-3.719 4.5,5.59 7.84,12.172 7.19,16.692 -0.45,2.968 -3.22,5.238 -6.21,5.519 -2.63,0.488 -6.04,-0.211 -8.12,-1.902 -7.61,-6.571 -8.83,-27.231 -8.83,-28.5 v -0.059 -0.012 -0.066" /><path
         id="path526"
         style="fill:#1d2a30;fill-opacity:1;fill-rule:nonzero;stroke:none"
         d="m 1710.46,195.738 -81.82,5.114 c -2.84,0.296 -5.4,-1.762 -5.71,-4.602 l -0.01,-0.09 -8.03,-64.551 c -0.44,-7.05 4.88,-13.148 11.93,-13.668 28.58,-1.32 42.29,-0.531 78.32,-2.48 22.1,-1.332 65.65,-6.031 96.15,-3.082 30.5,2.961 26.76,33.031 13.59,34.473 -31.23,3.546 -72.59,26.5 -92.14,43.91 -3.42,2.98 -7.75,4.726 -12.28,4.976" /><path
         id="path528"
         style="fill:#100f0d;fill-opacity:1;fill-rule:nonzero;stroke:none"
         d="m 978.766,1321.62 176.874,-23.19 5.72,26.08 -177.18,25.77 -5.414,-28.66" /><path
         id="path530"
         style="fill:#100f0d;fill-opacity:1;fill-rule:nonzero;stroke:none"
         d="m 1176.08,1324.36 -2.14,-25.93 163.46,-22.47 v 25.61 l -161.32,22.79" /><path
         id="path532"
         style="fill:#100f0d;fill-opacity:1;fill-rule:nonzero;stroke:none"
         d="m 1347.54,1300.16 v -24.2 l 23.72,-3.18 v 23.4 l -23.72,3.98" /><path
         id="path534"
         style="fill:#182124;fill-opacity:1;fill-rule:nonzero;stroke:none"
         d="m 1431.1,1590.94 c -12.3,67 10,147 10,147 l 24.1,-27.8 c -7.2,-22.81 -13.8,-45.1 -19.9,-66.6 -5.1,-18.1 -9.8,-35.6 -14.2,-52.6 v 0" /><path
         id="path536"
         style="fill:#f47272;fill-opacity:1;fill-rule:nonzero;stroke:none"
         d="m 1503.57,1825.19 c 31.92,-6.47 42.47,-254.38 43.79,-280.75 1.32,-26.37 156.64,-77.69 156.64,-77.69 v -36.14 c 0,0 -166.44,11.65 -205.28,27.54 -38.85,15.88 -48.35,245.85 -48.35,245.85 l 53.2,121.19" /><path
         id="path538"
         style="fill:#1d2a30;fill-opacity:1;fill-rule:nonzero;stroke:none"
         d="m 1503.57,1825.19 c 29.29,-9.11 43.79,-172.62 43.79,-172.62 l -90.57,-36.49 -22.48,90.93 c 0,0 -6.43,18.46 6.24,57.48 18.3,56.38 63.02,60.7 63.02,60.7" /><path
         id="path540"
         style="fill:#4870c0;fill-opacity:1;fill-rule:nonzero;stroke:none"
         d="M 1629.38,888.992 H 748.676 v 42.297 c 0,43.703 35.426,79.121 79.121,79.121 h 722.463 c 43.7,0 79.12,-35.418 79.12,-79.121 v -42.297" /><path
         id="path542"
         style="fill:#1d2a30;fill-opacity:1;fill-rule:nonzero;stroke:none"
         d="m 1062.74,1311.07 h 484.89 c 24.94,0 43.4,-23.21 37.78,-47.5 l -86.69,-374.601 h -20.03 l 73.86,328.291 c 5.45,24.24 -12.98,47.27 -37.82,47.27 h -442.09 l -9.9,46.54" /><path
         id="path544"
         style="fill:#1d2a30;fill-opacity:1;fill-rule:nonzero;stroke:none"
         d="m 1246.26,875.871 v -316.5 c 0,-10.199 -8.3,-18.402 -18.4,-18.402 h -77.6 c -10.2,0 -18.4,8.203 -18.4,18.402 v 316.5 h 114.4" /><path
         id="path546"
         style="fill:#1d2a30;fill-opacity:1;fill-rule:nonzero;stroke:none"
         d="m 817.918,145.059 c 0,18.57 -15.059,33.621 -33.625,33.621 -18.574,0 -33.629,-15.051 -33.629,-33.621 0,-18.567 15.055,-33.629 33.629,-33.629 18.566,0 33.625,15.062 33.625,33.629" /><path
         id="path548"
         style="fill:#45555c;fill-opacity:1;fill-rule:nonzero;stroke:none"
         d="m 784.293,128.238 c -9.289,0 -16.816,7.532 -16.816,16.821 0,9.293 7.527,16.82 16.816,16.82 9.285,0 16.812,-7.527 16.812,-16.82 0,-9.289 -7.527,-16.821 -16.812,-16.821" /><path
         id="path550"
         style="fill:#1d2a30;fill-opacity:1;fill-rule:nonzero;stroke:none"
         d="m 1627.39,145.059 c 0,18.57 -15.06,33.621 -33.63,33.621 -18.56,0 -33.62,-15.051 -33.62,-33.621 0,-18.567 15.06,-33.629 33.62,-33.629 18.57,0 33.63,15.062 33.63,33.629" /><path
         id="path552"
         style="fill:#45555c;fill-opacity:1;fill-rule:nonzero;stroke:none"
         d="m 1593.76,128.238 c -9.28,0 -16.81,7.532 -16.81,16.821 0,9.293 7.53,16.82 16.81,16.82 9.29,0 16.82,-7.527 16.82,-16.82 0,-9.289 -7.53,-16.821 -16.82,-16.821" /><path
         id="path554"
         style="fill:#1d2a30;fill-opacity:1;fill-rule:nonzero;stroke:none"
         d="m 1216.85,292.609 v 361.762 h -55.64 V 292.609 c -216.647,-5.558 -348.296,-81.3 -374.644,-97.898 -3.074,-1.941 -4.906,-5.32 -4.906,-8.961 v -30.059 c 0,-5.871 4.762,-10.632 10.637,-10.632 3.816,0 7.344,2.05 9.234,5.371 l 12.856,22.539 c 0,0 149.015,53.133 346.823,57.422 v -59.45 c 0,-7.601 6.16,-13.761 13.76,-13.761 h 28.12 c 7.6,0 13.76,6.16 13.76,13.761 v 59.45 c 197.8,-4.289 346.82,-57.422 346.82,-57.422 l 12.85,-22.539 c 1.89,-3.321 5.42,-5.371 9.24,-5.371 5.88,0 10.64,4.761 10.64,10.632 v 30.059 c 0,3.641 -1.83,7.02 -4.91,8.961 -26.35,16.598 -157.99,92.34 -374.64,97.898" /><path
         id="path556"
         style="fill:#1d2a30;fill-opacity:1;fill-rule:nonzero;stroke:none"
         d="m 1207.28,111.43 h -36.5 v 67.25 h 36.5 v -67.25" /><path
         id="path558"
         style="fill:#182124;fill-opacity:1;fill-rule:nonzero;stroke:none"
         d="m 1246.26,744.371 h -114.4 v 107 h 103.39 v 0 h 11.01 v -107" /><path
         id="path560"
         style="fill:#1d2a30;fill-opacity:1;fill-rule:nonzero;stroke:none"
         d="M 1653.46,908.469 V 870.66 c 0,-10.691 -8.7,-19.289 -19.4,-19.289 H 743.953 c -10.695,0 -19.297,8.598 -19.297,19.289 v 37.809 c 0,10.59 8.602,19.293 19.297,19.293 h 890.107 c 10.7,0 19.4,-8.703 19.4,-19.293" /><path
         id="path562"
         style="fill:#1d2a30;fill-opacity:1;fill-rule:nonzero;stroke:none"
         d="M 1243.95,888.969 H 724.656 c 0,0 -165,274.401 -165,727.801 v 166.5 c 0,68.4 55.5,123.9 124,123.9 h 220.199 c 67.102,0 122.005,-53.3 123.905,-120.4 6.4,-233.6 40.79,-739.5 216.19,-897.801" /><path
         id="path564"
         style="fill:#45555c;fill-opacity:1;fill-rule:nonzero;stroke:none"
         d="M 1129.72,888.969 H 748.129 c -14.75,0 -28.285,8.133 -35.07,21.23 -14.629,28.211 -41.129,83.992 -68.039,164.041 14.718,1.08 29.964,1.56 45.406,1.56 119.367,0 251.062,-28.73 251.062,-28.73 l 5.996,39.91 c -0.714,0.15 -1.398,0.29 -2.109,0.44 0.09,0 0.18,0 0.27,0 6.132,0 11.418,4.72 11.933,11.03 l 39.891,488.93 v 0 c 0,0 -7.957,-238.75 -7.961,-417.9 0,-89.64 1.988,-164.37 7.961,-186.789 0.285,-1.07 0.785,-2.082 1.469,-3.031 v -36.531 l 75.902,-3.91 v 37.863 c 1.5,1.637 2.35,3.508 2.38,5.609 0.85,58.369 1.53,113.239 2.07,164.679 21.65,-75.7 48.91,-143.91 83.25,-196.69 17.29,-26.578 -1.1,-61.711 -32.82,-61.711" /><path
         id="path566"
         style="fill:#cecdcc;fill-opacity:1;fill-rule:nonzero;stroke:none"
         d="m 1634.16,851.371 h -144.04 v 0 h 143.94 c 10.03,0 18.3,7.559 19.3,17.32 -0.99,-9.73 -9.21,-17.32 -19.2,-17.32" /><path
         id="path568"
         style="fill:#cecdcc;fill-opacity:1;fill-rule:nonzero;stroke:none"
         d="m 1653.36,868.691 c 0,0.028 0,0.071 0.01,0.11 -0.01,-0.039 -0.01,-0.082 -0.01,-0.11 m 0.01,0.118 c 0,0.031 0.01,0.062 0.01,0.089 0,-0.027 -0.01,-0.058 -0.01,-0.089 m 0.01,0.121 c 0,0.031 0.01,0.062 0.01,0.082 0,-0.02 -0.01,-0.051 -0.01,-0.082 m 0.01,0.121 c 0,0.031 0,0.051 0.01,0.07 -0.01,-0.019 -0.01,-0.039 -0.01,-0.07 m 0.01,0.129 c 0,0.011 0,0.031 0,0.05 0,-0.019 0,-0.039 0,-0.05 m 0.01,0.121 c 0,0.008 0,0.031 0,0.039 0,-0.02 0,-0.031 0,-0.039 m 0.01,0.121 c 0,0.019 0,0.039 0,0.058 0,-0.019 0,-0.039 0,-0.058 m 0.01,0.129 c 0,0.008 0,0.031 0,0.051 0,-0.02 0,-0.043 0,-0.051 m 0,0.121 c 0,0.019 0,0.027 0,0.039 0,-0.012 0,-0.02 0,-0.039 m 0.01,0.117 c 0,0.012 0,0.02 0,0.02 0,0 0,-0.008 0,-0.02 m 0,0.133 v 0.008 -0.008 m 0.01,0.117 c 0,0.012 0,0.012 0,0.012 0,0 0,0 0,-0.012 m 0.01,0.383 c 0,0.078 0,0.16 0,0.238 v 26.961 -26.961 c 0,-0.078 0,-0.16 0,-0.238" /><path
         id="path570"
         style="fill:#182124;fill-opacity:1;fill-rule:nonzero;stroke:none"
         d="m 1634.06,851.371 h -398.81 c -14.41,0 -26.1,11.68 -26.1,26.09 v 11.508 h 34.8 v 0 c -9.87,8.902 -19.3,18.929 -28.3,29.929 4.78,5.434 11.79,8.864 19.6,8.864 h 398.81 c 10.7,0 19.4,-8.703 19.4,-19.293 v -8.348 -2.5 -26.961 c 0,-0.078 0,-0.16 0,-0.238 -0.01,-0.133 -0.01,-0.25 -0.01,-0.371 0,0 0,0 0,-0.012 0,-0.027 0,-0.07 -0.01,-0.109 v -0.008 c 0,-0.043 0,-0.07 0,-0.113 0,0 0,-0.008 0,-0.02 0,-0.019 0,-0.051 -0.01,-0.078 0,-0.012 0,-0.02 0,-0.039 0,-0.024 0,-0.051 0,-0.07 0,-0.02 0,-0.043 0,-0.051 -0.01,-0.031 -0.01,-0.051 -0.01,-0.071 0,-0.019 0,-0.039 0,-0.058 0,-0.024 -0.01,-0.051 -0.01,-0.082 0,-0.008 0,-0.031 0,-0.039 0,-0.02 0,-0.051 -0.01,-0.071 0,-0.019 0,-0.039 0,-0.05 0,-0.02 0,-0.039 0,-0.059 -0.01,-0.019 -0.01,-0.039 -0.01,-0.07 0,-0.012 0,-0.02 0,-0.039 0,-0.02 -0.01,-0.051 -0.01,-0.082 0,-0.008 0,-0.02 0,-0.032 0,-0.027 -0.01,-0.058 -0.01,-0.089 v -0.008 c -0.01,-0.039 -0.01,-0.082 -0.01,-0.11 v 0 c -1,-9.761 -9.27,-17.32 -19.3,-17.32" /><path
         id="path572"
         style="fill:#182124;fill-opacity:1;fill-rule:nonzero;stroke:none"
         d="m 1243.95,888.969 h -34.8 v 12.703 c 0,6.598 2.46,12.629 6.5,17.226 9,-11 18.43,-21.027 28.3,-29.929" /><path
         id="path574"
         style="fill:#4870c0;fill-opacity:1;fill-rule:nonzero;stroke:none"
         d="m 724.508,1921.88 32.965,43.22 c 0,0 140.972,-6.41 144.336,-57.93 3.359,-51.52 -177.301,14.71 -177.301,14.71" /><path
         id="path576"
         style="fill:#4870c0;fill-opacity:1;fill-rule:nonzero;stroke:none"
         d="m 631.895,1792.61 c 0,0 8.601,-228.95 0,-820.059 -0.29,-19.942 -74.614,-19.27 -79.747,0 -17.921,67.259 0,604.699 0,604.699 l 79.747,215.36" /><path
         id="path578"
         style="fill:#4870c0;fill-opacity:1;fill-rule:nonzero;stroke:none"
         d="M 553.609,969.582 629.516,967 v -37.91 l -75.907,3.898 v 36.594" /><path
         id="path580"
         style="fill:#658acf;fill-opacity:1;fill-rule:nonzero;stroke:none"
         d="M 629.516,966.941 V 967 l -75.907,2.582 v -0.051 c -0.683,0.949 -1.175,1.949 -1.461,3.02 -3.293,12.359 -5.375,40.569 -6.582,78.419 23.192,12.03 53.758,18.91 87.672,22.25 -0.39,-32.33 -0.836,-65.85 -1.343,-100.669 -0.032,-2.102 -0.879,-3.961 -2.379,-5.61" /><path
         id="path582"
         style="fill:#658acf;fill-opacity:1;fill-rule:nonzero;stroke:none"
         d="m 594.336,957.852 c -17.289,0 -35.188,3.949 -40.727,11.679 v 0 0.051 L 629.516,967 v -0.059 c -5.575,-6.101 -20.149,-9.089 -35.18,-9.089" /><path
         id="path584"
         style="fill:#4870c0;fill-opacity:1;fill-rule:nonzero;stroke:none"
         d="m 516.121,1093.46 c -4.074,108.94 -19.023,609.89 43.535,775.94 0,0 58.93,74.81 258.262,74.81 199.332,0 259.302,-141.47 259.302,-141.47 0,0 8.61,-228.94 0,-820.049 -0.29,-19.949 -74.61,-19.269 -79.751,0 -17.914,67.239 0,604.689 0,604.689 l -39.891,-488.93 c -0.566,-6.94 -6.894,-11.96 -13.777,-10.89 -62.867,9.69 -340.254,48.89 -413.289,-1.12 -6.004,-4.11 -14.121,-0.26 -14.391,7.02" /><path
         id="path586"
         style="fill:#4870c0;fill-opacity:1;fill-rule:nonzero;stroke:none"
         d="m 998.938,979.719 75.902,-2.59 v -37.91 l -75.902,3.91 v 36.59" /><path
         id="path588"
         style="fill:#4870c0;fill-opacity:1;fill-rule:nonzero;stroke:none"
         d="m 947.484,1086.98 -5.996,-39.91 c 0,0 -309.293,67.48 -409.511,-4.38 l -5.93,44.29 c 0,0 77.387,71.34 421.437,0" /><path
         id="path590"
         style="fill:#8daee0;fill-opacity:1;fill-rule:nonzero;stroke:none"
         d="m 1074.84,977.082 v 0.047 l -75.902,2.59 v -0.059 c -0.684,0.949 -1.184,1.961 -1.469,3.031 -5.973,22.419 -7.961,97.149 -7.961,186.789 0.004,179.15 7.961,417.9 7.961,417.9 v 0 c 0,0 4.401,155.23 79.751,215.36 0,0 -94.251,-40.55 -79.751,-215.36 l -39.891,-488.93 c -0.515,-6.31 -5.801,-11.03 -11.933,-11.03 -0.09,0 -0.18,0 -0.27,0 -113.617,23.44 -198.016,31.27 -260.066,31.27 -124.852,0 -159.262,-31.71 -159.262,-31.71 l 0.285,-2.15 c -0.383,-0.05 -0.769,-0.07 -1.148,-0.07 -4.614,0 -8.868,3.46 -9.063,8.7 -1.508,40.37 -4.512,134.59 -4.512,245.65 0.004,188.6 8.676,425.78 48.047,530.29 0,0 58.93,74.81 258.262,74.81 199.332,0 259.302,-141.47 259.302,-141.47 v 0 c 0.01,-0.15 3.83,-102.03 3.83,-345.09 -0.01,-121.44 -0.96,-278.12 -3.83,-474.959 -0.03,-2.101 -0.88,-3.972 -2.38,-5.609 M 770.66,1926.32 c -145.055,-44.04 -105.492,-731.33 -105.492,-731.33 14.5,681.76 105.492,731.33 105.492,731.33" /><path
         id="path592"
         style="fill:#8daee0;fill-opacity:1;fill-rule:nonzero;stroke:none"
         d="m 1039.66,967.98 c -17.28,0 -35.18,3.95 -40.722,11.68 v 0 0.059 l 75.902,-2.59 v -0.047 c -5.57,-6.113 -20.14,-9.102 -35.18,-9.102" /><path
         id="path594"
         style="fill:#8daee0;fill-opacity:1;fill-rule:nonzero;stroke:none"
         d="m 526.332,1084.83 v 0 l -0.285,2.15 c 0,0 34.41,31.71 159.262,31.71 62.05,0 146.449,-7.83 260.066,-31.27 v 0 c -0.52,0.01 -1.047,0.06 -1.574,0.14 -39.434,6.08 -163.278,23.76 -268.133,23.76 -62.328,0 -117.93,-6.24 -145.156,-24.88 -1.324,-0.91 -2.754,-1.43 -4.18,-1.61" /><path
         id="path596"
         style="fill:#678acf;fill-opacity:1;fill-rule:nonzero;stroke:none"
         d="m 997.469,1587.38 v 0 0 0 c -14.5,174.81 79.751,215.36 79.751,215.36 -75.35,-60.13 -79.751,-215.36 -79.751,-215.36" /><path
         id="path598"
         style="fill:#678acf;fill-opacity:1;fill-rule:nonzero;stroke:none"
         d="m 665.168,1194.99 c 0,0 -39.563,687.29 105.492,731.33 0,0 -90.992,-49.57 -105.492,-731.33" /></g></g></svg>